<svg width="28" height="28" viewBox="0 0 28 28" fill="none" xmlns="http://www.w3.org/2000/svg">
<path d="M11.8125 6.5625H13.5625C13.6785 6.5625 13.7898 6.51641 13.8719 6.43436C13.9539 6.35231 14 6.24103 14 6.125V3.5C14 3.38397 13.9539 3.27269 13.8719 3.19064C13.7898 3.10859 13.6785 3.0625 13.5625 3.0625H11.8125C11.6965 3.0625 11.5852 3.10859 11.5031 3.19064C11.4211 3.27269 11.375 3.38397 11.375 3.5V6.125C11.375 6.24103 11.4211 6.35231 11.5031 6.43436C11.5852 6.51641 11.6965 6.5625 11.8125 6.5625ZM12.25 3.9375H13.125V5.6875H12.25V3.9375Z" fill="black"/>
<path d="M15.3125 6.5625H17.0625C17.1785 6.5625 17.2898 6.51641 17.3719 6.43436C17.4539 6.35231 17.5 6.24103 17.5 6.125V3.5C17.5 3.38397 17.4539 3.27269 17.3719 3.19064C17.2898 3.10859 17.1785 3.0625 17.0625 3.0625H15.3125C15.1965 3.0625 15.0852 3.10859 15.0031 3.19064C14.9211 3.27269 14.875 3.38397 14.875 3.5V6.125C14.875 6.24103 14.9211 6.35231 15.0031 6.43436C15.0852 6.51641 15.1965 6.5625 15.3125 6.5625ZM15.75 3.9375H16.625V5.6875H15.75V3.9375Z" fill="black"/>
<path d="M18.8125 6.5625H20.5625C20.6785 6.5625 20.7898 6.51641 20.8719 6.43436C20.9539 6.35231 21 6.24103 21 6.125V3.5C21 3.38397 20.9539 3.27269 20.8719 3.19064C20.7898 3.10859 20.6785 3.0625 20.5625 3.0625H18.8125C18.6965 3.0625 18.5852 3.10859 18.5031 3.19064C18.4211 3.27269 18.375 3.38397 18.375 3.5V6.125C18.375 6.24103 18.4211 6.35231 18.5031 6.43436C18.5852 6.51641 18.6965 6.5625 18.8125 6.5625ZM19.25 3.9375H20.125V5.6875H19.25V3.9375Z" fill="black"/>
<path d="M11.8125 10.9375H13.5625C13.6785 10.9375 13.7898 10.8914 13.8719 10.8094C13.9539 10.7273 14 10.616 14 10.5V7.875C14 7.75897 13.9539 7.64769 13.8719 7.56564C13.7898 7.48359 13.6785 7.4375 13.5625 7.4375H11.8125C11.6965 7.4375 11.5852 7.48359 11.5031 7.56564C11.4211 7.64769 11.375 7.75897 11.375 7.875V10.5C11.375 10.616 11.4211 10.7273 11.5031 10.8094C11.5852 10.8914 11.6965 10.9375 11.8125 10.9375ZM12.25 8.3125H13.125V10.0625H12.25V8.3125Z" fill="black"/>
<path d="M15.3125 10.9375H17.0625C17.1785 10.9375 17.2898 10.8914 17.3719 10.8094C17.4539 10.7273 17.5 10.616 17.5 10.5V7.875C17.5 7.75897 17.4539 7.64769 17.3719 7.56564C17.2898 7.48359 17.1785 7.4375 17.0625 7.4375H15.3125C15.1965 7.4375 15.0852 7.48359 15.0031 7.56564C14.9211 7.64769 14.875 7.75897 14.875 7.875V10.5C14.875 10.616 14.9211 10.7273 15.0031 10.8094C15.0852 10.8914 15.1965 10.9375 15.3125 10.9375ZM15.75 8.3125H16.625V10.0625H15.75V8.3125Z" fill="black"/>
<path d="M18.8125 10.9375H20.5625C20.6785 10.9375 20.7898 10.8914 20.8719 10.8094C20.9539 10.7273 21 10.616 21 10.5V7.875C21 7.75897 20.9539 7.64769 20.8719 7.56564C20.7898 7.48359 20.6785 7.4375 20.5625 7.4375H18.8125C18.6965 7.4375 18.5852 7.48359 18.5031 7.56564C18.4211 7.64769 18.375 7.75897 18.375 7.875V10.5C18.375 10.616 18.4211 10.7273 18.5031 10.8094C18.5852 10.8914 18.6965 10.9375 18.8125 10.9375ZM19.25 8.3125H20.125V10.0625H19.25V8.3125Z" fill="black"/>
<path d="M8.3125 6.5625H10.0625C10.1785 6.5625 10.2898 6.51641 10.3719 6.43436C10.4539 6.35231 10.5 6.24103 10.5 6.125V3.5C10.5 3.38397 10.4539 3.27269 10.3719 3.19064C10.2898 3.10859 10.1785 3.0625 10.0625 3.0625H8.3125C8.19647 3.0625 8.08519 3.10859 8.00314 3.19064C7.92109 3.27269 7.875 3.38397 7.875 3.5V6.125C7.875 6.24103 7.92109 6.35231 8.00314 6.43436C8.08519 6.51641 8.19647 6.5625 8.3125 6.5625ZM8.75 3.9375H9.625V5.6875H8.75V3.9375Z" fill="black"/>
<path d="M8.3125 10.9375H10.0625C10.1785 10.9375 10.2898 10.8914 10.3719 10.8094C10.4539 10.7273 10.5 10.616 10.5 10.5V7.875C10.5 7.75897 10.4539 7.64769 10.3719 7.56564C10.2898 7.48359 10.1785 7.4375 10.0625 7.4375H8.3125C8.19647 7.4375 8.08519 7.48359 8.00314 7.56564C7.92109 7.64769 7.875 7.75897 7.875 7.875V10.5C7.875 10.616 7.92109 10.7273 8.00314 10.8094C8.08519 10.8914 8.19647 10.9375 8.3125 10.9375ZM8.75 8.3125H9.625V10.0625H8.75V8.3125Z" fill="black"/>
<path d="M11.8125 15.3125H13.5625C13.6785 15.3125 13.7898 15.2664 13.8719 15.1844C13.9539 15.1023 14 14.991 14 14.875V12.25C14 12.134 13.9539 12.0227 13.8719 11.9406C13.7898 11.8586 13.6785 11.8125 13.5625 11.8125H11.8125C11.6965 11.8125 11.5852 11.8586 11.5031 11.9406C11.4211 12.0227 11.375 12.134 11.375 12.25V14.875C11.375 14.991 11.4211 15.1023 11.5031 15.1844C11.5852 15.2664 11.6965 15.3125 11.8125 15.3125ZM12.25 12.6875H13.125V14.4375H12.25V12.6875Z" fill="black"/>
<path d="M8.3125 15.3125H10.0625C10.1785 15.3125 10.2898 15.2664 10.3719 15.1844C10.4539 15.1023 10.5 14.991 10.5 14.875V12.25C10.5 12.134 10.4539 12.0227 10.3719 11.9406C10.2898 11.8586 10.1785 11.8125 10.0625 11.8125H8.3125C8.19647 11.8125 8.08519 11.8586 8.00314 11.9406C7.92109 12.0227 7.875 12.134 7.875 12.25V14.875C7.875 14.991 7.92109 15.1023 8.00314 15.1844C8.08519 15.2664 8.19647 15.3125 8.3125 15.3125ZM8.75 12.6875H9.625V14.4375H8.75V12.6875Z" fill="black"/>
<path d="M15.3125 15.3125H17.0625C17.1785 15.3125 17.2898 15.2664 17.3719 15.1844C17.4539 15.1023 17.5 14.991 17.5 14.875V12.25C17.5 12.134 17.4539 12.0227 17.3719 11.9406C17.2898 11.8586 17.1785 11.8125 17.0625 11.8125H15.3125C15.1965 11.8125 15.0852 11.8586 15.0031 11.9406C14.9211 12.0227 14.875 12.134 14.875 12.25V14.875C14.875 14.991 14.9211 15.1023 15.0031 15.1844C15.0852 15.2664 15.1965 15.3125 15.3125 15.3125ZM15.75 12.6875H16.625V14.4375H15.75V12.6875Z" fill="black"/>
<path d="M18.8125 15.3125H20.5625C20.6785 15.3125 20.7898 15.2664 20.8719 15.1844C20.9539 15.1023 21 14.991 21 14.875V12.25C21 12.134 20.9539 12.0227 20.8719 11.9406C20.7898 11.8586 20.6785 11.8125 20.5625 11.8125H18.8125C18.6965 11.8125 18.5852 11.8586 18.5031 11.9406C18.4211 12.0227 18.375 12.134 18.375 12.25V14.875C18.375 14.991 18.4211 15.1023 18.5031 15.1844C18.5852 15.2664 18.6965 15.3125 18.8125 15.3125ZM19.25 12.6875H20.125V14.4375H19.25V12.6875Z" fill="black"/>
<path d="M11.8125 19.6875H13.5625C13.6785 19.6875 13.7898 19.6414 13.8719 19.5594C13.9539 19.4773 14 19.366 14 19.25V16.625C14 16.509 13.9539 16.3977 13.8719 16.3156C13.7898 16.2336 13.6785 16.1875 13.5625 16.1875H11.8125C11.6965 16.1875 11.5852 16.2336 11.5031 16.3156C11.4211 16.3977 11.375 16.509 11.375 16.625V19.25C11.375 19.366 11.4211 19.4773 11.5031 19.5594C11.5852 19.6414 11.6965 19.6875 11.8125 19.6875ZM12.25 17.0625H13.125V18.8125H12.25V17.0625Z" fill="black"/>
<path d="M8.3125 19.6875H10.0625C10.1785 19.6875 10.2898 19.6414 10.3719 19.5594C10.4539 19.4773 10.5 19.366 10.5 19.25V16.625C10.5 16.509 10.4539 16.3977 10.3719 16.3156C10.2898 16.2336 10.1785 16.1875 10.0625 16.1875H8.3125C8.19647 16.1875 8.08519 16.2336 8.00314 16.3156C7.92109 16.3977 7.875 16.509 7.875 16.625V19.25C7.875 19.366 7.92109 19.4773 8.00314 19.5594C8.08519 19.6414 8.19647 19.6875 8.3125 19.6875ZM8.75 17.0625H9.625V18.8125H8.75V17.0625Z" fill="black"/>
<path d="M15.3125 19.6875H17.0625C17.1785 19.6875 17.2898 19.6414 17.3719 19.5594C17.4539 19.4773 17.5 19.366 17.5 19.25V16.625C17.5 16.509 17.4539 16.3977 17.3719 16.3156C17.2898 16.2336 17.1785 16.1875 17.0625 16.1875H15.3125C15.1965 16.1875 15.0852 16.2336 15.0031 16.3156C14.9211 16.3977 14.875 16.509 14.875 16.625V19.25C14.875 19.366 14.9211 19.4773 15.0031 19.5594C15.0852 19.6414 15.1965 19.6875 15.3125 19.6875ZM15.75 17.0625H16.625V18.8125H15.75V17.0625Z" fill="black"/>
<path d="M18.8125 19.6875H20.5625C20.6785 19.6875 20.7898 19.6414 20.8719 19.5594C20.9539 19.4773 21 19.366 21 19.25V16.625C21 16.509 20.9539 16.3977 20.8719 16.3156C20.7898 16.2336 20.6785 16.1875 20.5625 16.1875H18.8125C18.6965 16.1875 18.5852 16.2336 18.5031 16.3156C18.4211 16.3977 18.375 16.509 18.375 16.625V19.25C18.375 19.366 18.4211 19.4773 18.5031 19.5594C18.5852 19.6414 18.6965 19.6875 18.8125 19.6875ZM19.25 17.0625H20.125V18.8125H19.25V17.0625Z" fill="black"/>
<path d="M26.6877 17.0625H22.7502V1.75C22.7502 1.63397 22.7041 1.52269 22.6221 1.44064C22.54 1.35859 22.4287 1.3125 22.3127 1.3125H6.56271C6.44668 1.3125 6.3354 1.35859 6.25335 1.44064C6.1713 1.52269 6.12521 1.63397 6.12521 1.75V17.4492C5.75734 17.2126 5.3325 17.0795 4.89538 17.064C4.45826 17.0484 4.02502 17.1509 3.64125 17.3608C3.25749 17.5706 2.93738 17.8801 2.71462 18.2565C2.49186 18.6329 2.37467 19.0624 2.3754 19.4998C2.37585 19.7428 2.41348 19.9844 2.48696 20.216C1.94734 20.4094 1.49338 20.7872 1.20519 21.2827C0.917001 21.7783 0.813106 22.3597 0.91184 22.9243C1.01057 23.489 1.30559 24.0007 1.74482 24.369C2.18406 24.7373 2.73929 24.9387 3.31252 24.9375C3.68179 24.9352 4.04553 24.8475 4.37521 24.6811V26.25C4.37521 26.366 4.4213 26.4773 4.50335 26.5594C4.5854 26.6414 4.69668 26.6875 4.81271 26.6875C4.92874 26.6875 5.04002 26.6414 5.12207 26.5594C5.20411 26.4773 5.25021 26.366 5.25021 26.25V24.6811C5.52389 24.8163 5.82089 24.8978 6.12521 24.9213V26.25C6.12521 26.366 6.1713 26.4773 6.25335 26.5594C6.3354 26.6414 6.44668 26.6875 6.56271 26.6875H25.8127C25.9287 26.6875 26.04 26.6414 26.1221 26.5594C26.2041 26.4773 26.2502 26.366 26.2502 26.25V19.6875H26.6877C26.8037 19.6875 26.915 19.6414 26.9971 19.5594C27.0791 19.4773 27.1252 19.366 27.1252 19.25V17.5C27.1252 17.384 27.0791 17.2727 26.9971 17.1906C26.915 17.1086 26.8037 17.0625 26.6877 17.0625ZM4.81271 22.3125C4.69668 22.3125 4.5854 22.3586 4.50335 22.4406C4.4213 22.5227 4.37521 22.634 4.37521 22.75V23.625C4.09155 23.9038 3.71024 24.0608 3.31252 24.0625C2.91259 24.064 2.5274 23.9116 2.23678 23.6369C1.94617 23.3621 1.77242 22.9861 1.75155 22.5867C1.73068 22.1873 1.86429 21.7952 2.12469 21.4917C2.38508 21.1881 2.75229 20.9964 3.15021 20.9563C3.22318 20.9484 3.293 20.9224 3.35327 20.8805C3.41353 20.8386 3.46228 20.7822 3.49505 20.7166C3.52782 20.6509 3.54354 20.5781 3.54077 20.5047C3.538 20.4314 3.51683 20.3599 3.47921 20.2969C3.33206 20.057 3.25367 19.7813 3.25258 19.4998C3.25258 19.0855 3.41718 18.6881 3.71017 18.3951C4.00316 18.1021 4.40054 17.9375 4.8149 17.9375C5.22925 17.9375 5.62663 18.1021 5.91962 18.3951C6.21261 18.6881 6.37721 19.0855 6.37721 19.4998C6.37612 19.7813 6.29773 20.057 6.15058 20.2969C6.11296 20.3599 6.09179 20.4314 6.08902 20.5047C6.08625 20.5781 6.10197 20.6509 6.13474 20.7166C6.16751 20.7822 6.21627 20.8386 6.27653 20.8805C6.33679 20.9224 6.40662 20.9484 6.47958 20.9563C6.87771 20.9964 7.2451 21.1883 7.50553 21.492C7.76596 21.7958 7.89945 22.1882 7.87828 22.5878C7.85712 22.9874 7.68294 23.3635 7.39188 23.6381C7.10082 23.9126 6.71522 24.0646 6.31508 24.0625C5.91661 24.0613 5.53441 23.9043 5.25021 23.625V22.75C5.25021 22.634 5.20411 22.5227 5.12207 22.4406C5.04002 22.3586 4.92874 22.3125 4.81271 22.3125ZM16.6252 25.8125H12.2502V21.4375H16.6252V25.8125ZM21.8752 25.8125H17.5002V21C17.5002 20.884 17.4541 20.7727 17.3721 20.6906C17.29 20.6086 17.1787 20.5625 17.0627 20.5625H11.8127C11.6967 20.5625 11.5854 20.6086 11.5033 20.6906C11.4213 20.7727 11.3752 20.884 11.3752 21V25.8125H7.00021V24.8373C7.49308 24.6935 7.92776 24.3974 8.24191 23.9913C8.55606 23.5852 8.73354 23.0901 8.74889 22.5769C8.76424 22.0637 8.61668 21.5589 8.32737 21.1347C8.03805 20.7106 7.62185 20.389 7.13846 20.216C7.21194 19.9844 7.24956 19.7428 7.25002 19.4998C7.24965 19.1294 7.16418 18.764 7.00021 18.4319V2.1875H21.8752V25.8125ZM25.3752 25.8125H22.7502V19.6875H25.3752V25.8125ZM26.2502 18.8125H22.7502V17.9375H26.2502V18.8125Z" fill="black"/>
</svg>
