<svg width="29" height="28" viewBox="0 0 29 28" fill="none" xmlns="http://www.w3.org/2000/svg">
<g clip-path="url(#clip0_1_164)">
<path d="M6.26498 5.39239C6.40703 5.39239 6.52688 5.37463 6.62454 5.33912C6.7222 5.30361 6.80655 5.25922 6.87757 5.20595C6.93084 5.13492 6.97523 5.05502 7.01074 4.96624C7.04625 4.87746 7.06401 4.7798 7.06401 4.67326C7.06401 4.54897 7.04625 4.44243 7.01074 4.35365C6.97523 4.26487 6.93084 4.18496 6.87757 4.11394C6.80655 4.06067 6.7222 4.01628 6.62454 3.98077C6.52688 3.94525 6.40703 3.9275 6.26498 3.9275H5.30614V5.39239H6.26498ZM4.40057 7.78948C4.40057 7.78948 4.39614 7.7806 4.38726 7.76285C4.37838 7.74509 4.37394 7.71845 4.37394 7.68294V3.34154C4.37394 3.32379 4.37394 3.30603 4.37394 3.28827C4.37394 3.27052 4.38282 3.25276 4.40057 3.235C4.41833 3.21725 4.43609 3.20393 4.45384 3.19505C4.4716 3.18617 4.48936 3.18174 4.50711 3.18174C4.50711 3.18174 4.51155 3.18174 4.52043 3.18174C4.52931 3.18174 4.53375 3.18174 4.53375 3.18174H6.31825C6.58459 3.18174 6.8243 3.21281 7.03738 3.27496C7.25045 3.3371 7.42801 3.43032 7.57006 3.55462C7.72987 3.69667 7.84529 3.85647 7.91631 4.03403C7.98734 4.2116 8.02285 4.42467 8.02285 4.67326C8.02285 4.90409 7.98734 5.11273 7.91631 5.29917C7.84529 5.48561 7.72987 5.64097 7.57006 5.76527C7.42801 5.88956 7.25045 5.98278 7.03738 6.04493C6.8243 6.10708 6.58459 6.13815 6.31825 6.13815H5.33278V7.68294C5.33278 7.71845 5.32834 7.74509 5.31946 7.76285C5.31058 7.7806 5.29726 7.79836 5.27951 7.81611C5.26175 7.81611 5.244 7.82055 5.22624 7.82943C5.20848 7.83831 5.19073 7.84275 5.17297 7.84275H4.53375C4.53375 7.84275 4.52931 7.84275 4.52043 7.84275C4.51155 7.84275 4.50711 7.84275 4.50711 7.84275C4.48936 7.84275 4.4716 7.83831 4.45384 7.82943C4.43609 7.82055 4.41833 7.80724 4.40057 7.78948ZM23.4441 18.7362L25.788 18.39V19.6151H22.5386C22.5918 19.3843 22.6984 19.1845 22.8582 19.0159C23.018 18.8472 23.2133 18.754 23.4441 18.7362ZM6.61123 19.6151H3.36183V18.39L5.70566 18.7362C5.93649 18.754 6.13625 18.8472 6.30493 19.0159C6.47362 19.1845 6.57571 19.3843 6.61123 19.6151ZM25.5749 12.051C25.6104 12.051 25.6415 12.0599 25.6681 12.0776C25.6947 12.0954 25.7081 12.122 25.7081 12.1575L26.001 13.3561C26.001 13.3561 26.001 13.3605 26.001 13.3694C26.001 13.3783 26.001 13.3827 26.001 13.3827C26.001 13.4005 25.9966 13.4182 25.9877 13.436C25.9788 13.4537 25.9744 13.4626 25.9744 13.4626C25.9566 13.4804 25.9389 13.4937 25.9211 13.5026C25.9034 13.5114 25.8856 13.5159 25.8679 13.5159H24.403L23.817 12.051H25.5749ZM6.63786 8.77495L6.55796 8.93476H3.06886C2.90905 8.93476 2.77588 8.88149 2.66934 8.77495C2.5628 8.66841 2.50954 8.53524 2.50954 8.37543V2.54251C2.50954 2.3827 2.5628 2.24953 2.66934 2.143C2.77588 2.03646 2.90905 1.98319 3.06886 1.98319H8.90178C9.06159 1.98319 9.19476 2.03646 9.3013 2.143C9.40783 2.24953 9.4611 2.3827 9.4611 2.54251V7.4965H8.47563C8.06724 7.4965 7.69436 7.61636 7.35699 7.85607C7.01962 8.09578 6.77991 8.40207 6.63786 8.77495ZM3.20203 13.4626C3.18427 13.4626 3.17096 13.4537 3.16208 13.436C3.1532 13.4182 3.14876 13.4005 3.14876 13.3827C3.14876 13.3827 3.14876 13.3783 3.14876 13.3694C3.14876 13.3605 3.15764 13.3561 3.17539 13.3561L3.44174 12.1575C3.45949 12.122 3.48169 12.0954 3.50832 12.0776C3.53496 12.0599 3.55715 12.051 3.57491 12.051H5.38605L4.80009 13.5159H3.30857C3.27305 13.5159 3.24642 13.5114 3.22866 13.5026C3.21091 13.4937 3.20203 13.4804 3.20203 13.4626ZM26.9332 17.6975V17.6708C26.9155 17.6176 26.9022 17.5732 26.8933 17.5377C26.8844 17.5021 26.8622 17.4666 26.8267 17.4311L25.0422 14.6611H25.8679C26.0632 14.6611 26.2496 14.6168 26.4272 14.528C26.6048 14.4392 26.7468 14.3238 26.8533 14.1817C26.9421 14.0752 27.0131 13.9553 27.0664 13.8222C27.1197 13.689 27.1463 13.5425 27.1463 13.3827C27.1463 13.3294 27.1419 13.2762 27.133 13.2229C27.1241 13.1696 27.1108 13.1252 27.0931 13.0897L26.8267 11.8912C26.7557 11.6071 26.6048 11.3718 26.3739 11.1854C26.1431 10.9989 25.8767 10.9057 25.5749 10.9057H23.3642L22.5119 8.74832C22.3699 8.37543 22.1346 8.07358 21.8061 7.84275C21.4776 7.61192 21.1092 7.4965 20.7008 7.4965C20.7008 7.4965 20.6919 7.4965 20.6742 7.4965H10.6064V2.54251C10.6064 2.08085 10.4421 1.68133 10.1136 1.34397C9.78515 1.0066 9.3812 0.837912 8.90178 0.837912H3.06886C2.60719 0.837912 2.20768 1.0066 1.87031 1.34397C1.53294 1.68133 1.36426 2.08085 1.36426 2.54251V8.37543C1.36426 8.85485 1.53294 9.25881 1.87031 9.5873C2.20768 9.91579 2.60719 10.08 3.06886 10.08H6.13181L5.8122 10.9057H3.57491C3.29081 10.9057 3.03334 10.9989 2.80251 11.1854C2.57168 11.3718 2.42075 11.6071 2.34973 11.8912L2.05675 13.0897C2.00348 13.285 1.99904 13.4759 2.04343 13.6624C2.08782 13.8488 2.17217 14.0219 2.29646 14.1817C2.42075 14.3238 2.56724 14.4392 2.73593 14.528C2.90461 14.6168 3.09549 14.6611 3.30857 14.6611H21.9526C22.1124 14.6611 22.25 14.6034 22.3654 14.488C22.4809 14.3726 22.5386 14.2439 22.5386 14.1018C22.5386 13.942 22.4809 13.8044 22.3654 13.689C22.25 13.5736 22.1124 13.5159 21.9526 13.5159H6.02527L7.70324 9.17447C7.7565 9.01466 7.85416 8.88593 7.99621 8.78827C8.13826 8.69061 8.29807 8.64178 8.47563 8.64178H20.6742C20.6742 8.64178 20.6786 8.64178 20.6875 8.64178C20.6964 8.64178 20.7008 8.64178 20.7008 8.64178C20.8606 8.64178 21.0115 8.69061 21.1536 8.78827C21.2956 8.88593 21.3933 9.01466 21.4466 9.17447H21.4732L23.4708 14.2616C23.4885 14.2794 23.4974 14.2971 23.4974 14.3149C23.4974 14.3327 23.5063 14.3415 23.524 14.3415V14.3948L25.4151 17.2979L23.311 17.5909C22.7605 17.6797 22.3033 17.9283 21.9393 18.3367C21.5753 18.7451 21.3933 19.2334 21.3933 19.8016V20.1745C21.3933 20.3343 21.4466 20.4674 21.5531 20.574C21.6596 20.6805 21.7928 20.7338 21.9526 20.7338H25.788V24.436C25.788 24.7201 25.6859 24.9642 25.4817 25.1684C25.2775 25.3726 25.0333 25.4747 24.7492 25.4747C24.4474 25.4747 24.1943 25.3726 23.9901 25.1684C23.7859 24.9642 23.6839 24.7201 23.6839 24.436V23.2374C23.6839 23.0776 23.6261 22.9444 23.5107 22.8379C23.3953 22.7314 23.2577 22.6781 23.0979 22.6781H6.05191C5.8921 22.6781 5.75893 22.7314 5.65239 22.8379C5.54585 22.9444 5.49258 23.0776 5.49258 23.2374V24.436C5.47483 24.7201 5.36385 24.9642 5.15965 25.1684C4.95546 25.3726 4.71131 25.4747 4.42721 25.4747C4.14311 25.4747 3.89896 25.3726 3.69476 25.1684C3.49057 24.9642 3.37959 24.7201 3.36183 24.436V20.7338H7.19718C7.35699 20.7338 7.4946 20.6805 7.61002 20.574C7.72543 20.4674 7.78314 20.3343 7.78314 20.1745V19.8016C7.78314 19.2511 7.5967 18.7673 7.22382 18.35C6.85094 17.9327 6.39815 17.6797 5.86546 17.5909L3.76135 17.2979L4.85336 15.6466C4.88887 15.5933 4.91551 15.5401 4.93326 15.4868C4.95102 15.4335 4.9599 15.3803 4.9599 15.327C4.9599 15.1672 4.90219 15.034 4.78677 14.9275C4.67136 14.821 4.53375 14.7677 4.37394 14.7677C4.28516 14.7677 4.19638 14.7899 4.1076 14.8343C4.01882 14.8787 3.95667 14.9364 3.92116 15.0074H3.89452L2.32309 17.4311V17.4578C2.30534 17.4755 2.28758 17.5066 2.26983 17.551C2.25207 17.5954 2.24319 17.6353 2.24319 17.6708C2.22544 17.6886 2.221 17.6975 2.22987 17.6975C2.23875 17.6975 2.24319 17.7063 2.24319 17.7241C2.24319 17.7241 2.23875 17.7285 2.22987 17.7374C2.221 17.7463 2.21656 17.7507 2.21656 17.7507V24.436C2.21656 25.0397 2.43407 25.559 2.8691 25.9941C3.30413 26.4291 3.8235 26.6466 4.42721 26.6466C5.03092 26.6466 5.54585 26.4291 5.972 25.9941C6.39815 25.559 6.61123 25.0397 6.61123 24.436V23.8234H22.5386V24.436C22.5386 25.0397 22.7516 25.559 23.1778 25.9941C23.6039 26.4291 24.1278 26.6466 24.7492 26.6466C25.3529 26.6466 25.8679 26.4291 26.294 25.9941C26.7202 25.559 26.9332 25.0397 26.9332 24.436V17.7507C26.9332 17.733 26.9332 17.7197 26.9332 17.7108C26.9332 17.7019 26.9332 17.6975 26.9332 17.6975ZM17.8509 18.8161C18.0107 18.8161 18.1483 18.7584 18.2638 18.643C18.3792 18.5276 18.4369 18.39 18.4369 18.2301C18.4369 18.0881 18.3792 17.9594 18.2638 17.844C18.1483 17.7285 18.0107 17.6708 17.8509 17.6708H11.2989C11.1391 17.6708 11.0059 17.7285 10.8994 17.844C10.7928 17.9594 10.7396 18.0881 10.7396 18.2301C10.7396 18.39 10.7928 18.5276 10.8994 18.643C11.0059 18.7584 11.1391 18.8161 11.2989 18.8161H17.8509Z" fill="black"/>
</g>
<defs>
<clipPath id="clip0_1_164">
<rect width="27.2736" height="27.8302" fill="white" transform="matrix(1 0 0 -1 0.804688 27.8302)"/>
</clipPath>
</defs>
</svg>
