<svg width="28" height="28" viewBox="0 0 28 28" fill="none" xmlns="http://www.w3.org/2000/svg">
<g clip-path="url(#clip0_1_187)">
<path d="M6.15486 0.598177L6.26139 0.624813L25.9176 7.68292C26.0241 7.71843 26.1129 7.78502 26.1839 7.88268C26.2549 7.98034 26.2904 8.09131 26.2904 8.2156C26.2904 8.26887 26.2816 8.32214 26.2638 8.37541C26.246 8.42868 26.2283 8.48195 26.2105 8.53522L26.1306 8.61512L24.5059 10.3197L26.0241 11.3052C26.1129 11.3585 26.1795 11.425 26.2238 11.5049C26.2682 11.5849 26.2904 11.6781 26.2904 11.7846C26.2904 11.8024 26.2904 11.8201 26.2904 11.8379C26.2904 11.8556 26.2904 11.8734 26.2904 11.8911V11.8645L26.2638 11.971L24.6924 16.2325C24.6391 16.3568 24.5681 16.4501 24.4793 16.5122C24.3905 16.5744 24.284 16.6054 24.1597 16.6054C24.1419 16.6054 24.1197 16.6054 24.0931 16.6054C24.0665 16.6054 24.0443 16.6054 24.0265 16.6054L23.9466 16.5788L20.3243 15.0873L19.5253 15.9129C19.472 15.9662 19.4099 16.0106 19.3389 16.0461C19.2678 16.0816 19.1968 16.0994 19.1258 16.0994C19.108 16.0994 19.0903 16.0949 19.0725 16.0861C19.0548 16.0772 19.037 16.0727 19.0193 16.0727L18.9394 16.0461L14.3316 14.448C14.0475 14.9985 13.6391 15.4424 13.1064 15.7798C12.5737 16.1171 11.9789 16.2858 11.3219 16.2858C11.1976 16.2858 11.0733 16.2814 10.949 16.2725C10.8247 16.2636 10.7093 16.2503 10.6028 16.2325L9.9103 21.9856C9.9103 22.0921 9.87479 22.1898 9.80376 22.2785C9.73274 22.3673 9.64396 22.4295 9.53742 22.465L9.43088 22.4916L2.71902 23.3706H2.66575V26.4069C2.66575 26.5667 2.60805 26.7043 2.49263 26.8197C2.37722 26.9351 2.23961 26.9928 2.0798 26.9928C1.95551 26.9928 1.84009 26.9484 1.73355 26.8597C1.62701 26.7709 1.55599 26.6555 1.52048 26.5134V26.4069V19.189C1.52048 19.0292 1.57819 18.896 1.6936 18.7894C1.80902 18.6829 1.93775 18.6296 2.0798 18.6296C2.22185 18.6296 2.34614 18.674 2.45268 18.7628C2.55922 18.8516 2.62136 18.9581 2.63912 19.0824L2.66575 19.189V22.2253L8.84493 21.4262L9.51079 15.833L9.11127 15.6732C8.47205 15.4069 7.94824 14.9852 7.53984 14.4081C7.13145 13.831 6.92725 13.1785 6.92725 12.4505C6.92725 12.3439 6.93169 12.2418 6.94057 12.1442C6.94945 12.0465 6.96277 11.9444 6.98052 11.8379V11.8645L2.45268 10.2931C2.34614 10.2398 2.25736 10.1644 2.18634 10.0667C2.11531 9.96903 2.0798 9.85806 2.0798 9.73376C2.0798 9.71601 2.0798 9.69825 2.0798 9.68049C2.0798 9.66274 2.0798 9.64498 2.0798 9.62723L2.10643 9.52069L5.54227 0.944424C5.57778 0.855644 5.64436 0.77574 5.74202 0.704716C5.83968 0.63369 5.95066 0.598177 6.07495 0.598177C6.09271 0.598177 6.11047 0.598177 6.12822 0.598177C6.14598 0.598177 6.16373 0.598177 6.18149 0.598177H6.15486ZM6.39457 1.87663L3.38488 9.41415L18.966 14.8476L21.1766 12.5037C21.2299 12.4505 21.2921 12.4061 21.3631 12.3706C21.4341 12.3351 21.514 12.3173 21.6028 12.3173C21.6561 12.3173 21.7093 12.3262 21.7626 12.3439C21.8159 12.3617 21.8603 12.3794 21.8958 12.3972L21.9757 12.4771C22.0467 12.5304 22.0955 12.5925 22.1222 12.6635C22.1488 12.7346 22.1621 12.8056 22.1621 12.8766C22.1621 12.9476 22.1532 13.0054 22.1355 13.0497C22.1177 13.0941 22.1 13.143 22.0822 13.1962L22.0023 13.2761L21.15 14.1817L23.8134 15.3003L25.0386 11.9977L23.7069 11.172L23.4938 11.3585C23.4583 11.4117 23.405 11.4561 23.334 11.4916C23.263 11.5271 23.1831 11.5449 23.0943 11.5449C22.9345 11.5449 22.8013 11.4872 22.6948 11.3718C22.5883 11.2564 22.535 11.1187 22.535 10.9589C22.535 10.9057 22.5439 10.8524 22.5616 10.7991C22.5794 10.7459 22.5971 10.6926 22.6149 10.6393V10.666L22.6948 10.5861L24.719 8.45531L6.39457 1.87663ZM9.37761 14.5546L9.53742 14.6345L10.4963 15.0074C10.6206 15.0606 10.7537 15.1006 10.8958 15.1272C11.0378 15.1539 11.1799 15.1672 11.3219 15.1672C11.7303 15.1672 12.1032 15.0651 12.4406 14.8609C12.7779 14.6567 13.0443 14.3948 13.2396 14.0752L8.07253 12.2374C8.03702 12.7168 8.13468 13.1696 8.36551 13.5957C8.59634 14.0219 8.93371 14.3415 9.37761 14.5546Z" fill="black"/>
</g>
<defs>
<clipPath id="clip0_1_187">
<rect width="27.2736" height="27.8302" fill="white" transform="matrix(1 0 0 -1 0.322266 27.8304)"/>
</clipPath>
</defs>
</svg>
