<svg width="28" height="28" viewBox="0 0 28 28" fill="none" xmlns="http://www.w3.org/2000/svg">
<g clip-path="url(#clip0_1_158)">
<path d="M2.51793 25.8213H8.93681V21.4H2.51793V25.8213ZM2.51793 10.0005H8.93681V6.00536H2.51793V10.0005ZM2.51793 20.2547H8.93681V16.2596H2.51793V20.2547ZM2.51793 15.141H8.93681V11.1458H2.51793V15.141ZM13.9707 21.3201C13.438 21.3201 12.9808 21.511 12.599 21.8928C12.2173 22.2745 12.0264 22.7317 12.0264 23.2644C12.0264 23.8149 12.2173 24.281 12.599 24.6627C12.9808 25.0445 13.438 25.2354 13.9707 25.2354C14.5212 25.2354 14.9873 25.0445 15.369 24.6627C15.7508 24.281 15.9416 23.8149 15.9416 23.2644C15.9416 22.7317 15.7508 22.2745 15.369 21.8928C14.9873 21.511 14.5212 21.3201 13.9707 21.3201ZM26.4356 25.8213C26.5954 25.8213 26.733 25.8746 26.8484 25.9811C26.9638 26.0877 27.0215 26.2208 27.0215 26.3807C27.0215 26.5405 26.9638 26.6736 26.8484 26.7802C26.733 26.8867 26.5954 26.94 26.4356 26.94H19.4574C19.3153 26.94 19.1866 26.8867 19.0712 26.7802C18.9558 26.6736 18.8981 26.5405 18.8981 26.3807C18.8981 26.2208 18.9558 26.0877 19.0712 25.9811C19.1866 25.8746 19.3153 25.8213 19.4574 25.8213H22.1741V19.5623C21.233 19.0118 20.4162 18.3016 19.7237 17.4315C19.0312 16.5614 18.5341 15.576 18.2322 14.4751L17.4065 11.4388C17.1935 10.6397 16.8561 9.90286 16.3944 9.22812C15.9328 8.57114 15.3868 8.00294 14.7564 7.52352C14.1261 7.0441 13.4203 6.67122 12.639 6.40488C11.8755 6.13854 11.0764 6.00536 10.2419 6.00536H10.0555V25.8213H12.2128C11.8044 25.5372 11.4804 25.1732 11.2407 24.7293C11.001 24.2854 10.8811 23.7971 10.8811 23.2644C10.8811 22.4121 11.183 21.6841 11.7867 21.0804C12.3904 20.4767 13.1184 20.1748 13.9707 20.1748C14.8408 20.1748 15.5776 20.4767 16.1814 21.0804C16.7851 21.6841 17.0869 22.4121 17.0869 23.2644C17.0869 23.7971 16.9626 24.2854 16.714 24.7293C16.4655 25.1732 16.1458 25.5372 15.7552 25.8213H16.8739C17.0337 25.8213 17.1668 25.8746 17.2734 25.9811C17.3799 26.0877 17.4332 26.2208 17.4332 26.3807C17.4332 26.5405 17.3799 26.6736 17.2734 26.7802C17.1668 26.8867 17.0337 26.94 16.8739 26.94H1.31938C1.15958 26.94 1.02197 26.8867 0.906552 26.7802C0.791137 26.6736 0.733429 26.5405 0.733429 26.3807C0.733429 26.2208 0.791137 26.0877 0.906552 25.9811C1.02197 25.8746 1.15958 25.8213 1.31938 25.8213H1.37265V1.98358C1.37265 1.82377 1.43036 1.6906 1.54578 1.58406C1.66119 1.47752 1.7988 1.42425 1.95861 1.42425C2.10066 1.42425 2.22939 1.47752 2.34481 1.58406C2.46022 1.6906 2.51793 1.82377 2.51793 1.98358V4.86009H8.93681V1.98358C8.93681 1.82377 8.99008 1.6906 9.09662 1.58406C9.20316 1.47752 9.33633 1.42425 9.49613 1.42425C9.65594 1.42425 9.78911 1.47752 9.89565 1.58406C10.0022 1.6906 10.0555 1.82377 10.0555 1.98358V4.86009H10.2419C11.2007 4.86009 12.1241 5.01989 13.0119 5.3395C13.8997 5.64136 14.7076 6.06751 15.4356 6.61795C16.1636 7.1684 16.7939 7.82538 17.3266 8.5889C17.8593 9.37017 18.25 10.2225 18.4985 11.1458L19.3242 14.1821C19.5373 14.9811 19.8747 15.718 20.3363 16.3928C20.798 17.0497 21.344 17.6179 21.9743 18.0974C22.6047 18.5768 23.3105 18.9497 24.0918 19.216C24.8553 19.4824 25.6543 19.6155 26.4889 19.6155C26.6487 19.6155 26.7863 19.6688 26.9017 19.7753C27.0171 19.8819 27.0748 20.015 27.0748 20.1748C27.0748 20.3347 27.0171 20.4723 26.9017 20.5877C26.7863 20.7031 26.6487 20.7608 26.4889 20.7608C25.9207 20.743 25.3702 20.6809 24.8375 20.5744C24.3048 20.4678 23.7988 20.3169 23.3194 20.1216V25.8213H26.4356Z" fill="black"/>
</g>
<defs>
<clipPath id="clip0_1_158">
<rect width="27.2736" height="27.8302" fill="white" transform="matrix(1 0 0 -1 0.173828 27.8304)"/>
</clipPath>
</defs>
</svg>
