<svg width="17" height="18" viewBox="0 0 17 18" fill="none" xmlns="http://www.w3.org/2000/svg">
<g clip-path="url(#clip0_417_2664)">
<path d="M4.39253 7.66746C4.48711 7.66746 4.56593 7.69899 4.62898 7.76204C4.69203 7.82509 4.72356 7.90391 4.72356 7.99849C4.72356 8.10358 4.69203 8.18502 4.62898 8.24282C4.56593 8.30062 4.48711 8.32951 4.39253 8.32951H1.17684V15.5648C1.17684 15.838 1.27667 16.0745 1.47634 16.2742C1.67601 16.4738 1.91246 16.5737 2.18569 16.5737H14.9696C15.2324 16.5737 15.4662 16.4738 15.6711 16.2742C15.876 16.0745 15.9785 15.838 15.9785 15.5648V8.32951H12.5579C12.4528 8.32951 12.3713 8.30062 12.3135 8.24282C12.2557 8.18502 12.2268 8.10358 12.2268 7.99849C12.2268 7.90391 12.2557 7.82509 12.3135 7.76204C12.3713 7.69899 12.4528 7.66746 12.5579 7.66746H16.6405V15.5648C16.6405 16.0377 16.4776 16.4344 16.1519 16.7549C15.8261 17.0755 15.432 17.2357 14.9696 17.2357H2.16992C1.70753 17.2357 1.31346 17.0755 0.987682 16.7549C0.66191 16.4344 0.499023 16.0377 0.499023 15.5648V7.66746H4.39253ZM8.60131 1.17303C8.70639 1.17303 8.79309 1.20455 8.8614 1.2676C8.9297 1.33066 8.97962 1.40947 9.01115 1.50405V12.6959L11.7539 9.93736C11.817 9.87431 11.8932 9.84278 11.9825 9.84278C12.0718 9.84278 12.1533 9.87431 12.2268 9.93736C12.2899 10.0109 12.3214 10.0924 12.3214 10.1817C12.3214 10.271 12.2899 10.3472 12.2268 10.4103L8.86928 13.7678C8.83775 13.7678 8.81674 13.7783 8.80623 13.7993C8.79572 13.8204 8.7747 13.8309 8.74317 13.8309H8.4752C8.44367 13.8309 8.41215 13.8177 8.38062 13.7915C8.34909 13.7652 8.33333 13.7521 8.33333 13.7521L5.05459 10.4891C4.99153 10.4155 4.96001 10.3341 4.96001 10.2447C4.96001 10.1554 4.99153 10.0792 5.05459 10.0162C5.12815 9.94261 5.20959 9.90583 5.29892 9.90583C5.38824 9.90583 5.46443 9.94261 5.52748 10.0162L8.27028 12.759V1.50405C8.27028 1.40947 8.3018 1.33066 8.36486 1.2676C8.42791 1.20455 8.50673 1.17303 8.60131 1.17303Z" fill="#242B81"/>
</g>
<defs>
<clipPath id="clip0_417_2664">
<rect width="16.1415" height="16.6981" fill="white" transform="matrix(1 0 0 -1 0.499023 17.5927)"/>
</clipPath>
</defs>
</svg>
