<svg width="28" height="28" viewBox="0 0 28 28" fill="none" xmlns="http://www.w3.org/2000/svg">
<path d="M24.7406 25.648H3.25952C3.14071 25.648 3.02676 25.6008 2.94274 25.5168C2.85872 25.4328 2.81152 25.3188 2.81152 25.2V22.8264C2.81152 22.7076 2.85872 22.5937 2.94274 22.5097C3.02676 22.4256 3.14071 22.3784 3.25952 22.3784H24.7406C24.8594 22.3784 24.9733 22.4256 25.0573 22.5097C25.1414 22.5937 25.1886 22.7076 25.1886 22.8264V25.2C25.1886 25.3188 25.1414 25.4328 25.0573 25.5168C24.9733 25.6008 24.8594 25.648 24.7406 25.648ZM3.70752 24.752H24.2926V23.2744H3.70752V24.752Z" fill="black"/>
<path d="M23.7375 23.2744C23.6187 23.2744 23.5047 23.2272 23.4207 23.1432C23.3367 23.0592 23.2895 22.9453 23.2895 22.8264V11.8311H4.71094V22.8264C4.71094 22.9453 4.66374 23.0592 4.57973 23.1432C4.49571 23.2272 4.38176 23.2744 4.26294 23.2744C4.14412 23.2744 4.03017 23.2272 3.94616 23.1432C3.86214 23.0592 3.81494 22.9453 3.81494 22.8264V11.3831C3.81494 11.2643 3.86214 11.1504 3.94616 11.0663C4.03017 10.9823 4.14412 10.9351 4.26294 10.9351H23.7375C23.8563 10.9351 23.9703 10.9823 24.0543 11.0663C24.1383 11.1504 24.1855 11.2643 24.1855 11.3831V22.8264C24.1855 22.9453 24.1383 23.0592 24.0543 23.1432C23.9703 23.2272 23.8563 23.2744 23.7375 23.2744Z" fill="black"/>
<path d="M13.158 23.2744C13.0391 23.2744 12.9252 23.2272 12.8412 23.1432C12.7572 23.0592 12.71 22.9453 12.71 22.8264V16.3103H8.33692V22.8264C8.33692 22.9453 8.28972 23.0592 8.2057 23.1432C8.12169 23.2272 8.00773 23.2744 7.88892 23.2744C7.7701 23.2744 7.65615 23.2272 7.57213 23.1432C7.48812 23.0592 7.44092 22.9453 7.44092 22.8264V15.8623C7.44092 15.7435 7.48812 15.6295 7.57213 15.5455C7.65615 15.4615 7.7701 15.4143 7.88892 15.4143H13.158C13.2768 15.4143 13.3907 15.4615 13.4747 15.5455C13.5588 15.6295 13.606 15.7435 13.606 15.8623V22.8264C13.606 22.9453 13.5588 23.0592 13.4747 23.1432C13.3907 23.2272 13.2768 23.2744 13.158 23.2744Z" fill="black"/>
<path d="M11.6985 20.1303C11.5797 20.1303 11.4657 20.0831 11.3817 19.9991C11.2977 19.9151 11.2505 19.8011 11.2505 19.6823V19.0064C11.2505 18.8876 11.2977 18.7736 11.3817 18.6896C11.4657 18.6056 11.5797 18.5584 11.6985 18.5584C11.8173 18.5584 11.9313 18.6056 12.0153 18.6896C12.0993 18.7736 12.1465 18.8876 12.1465 19.0064V19.6823C12.1465 19.8011 12.0993 19.9151 12.0153 19.9991C11.9313 20.0831 11.8173 20.1303 11.6985 20.1303Z" fill="black"/>
<path d="M21.291 19.8741H15.6047C15.4859 19.8741 15.372 19.8269 15.288 19.7429C15.2039 19.6589 15.1567 19.5449 15.1567 19.4261V14.4791C15.1567 14.3602 15.2039 14.2463 15.288 14.1623C15.372 14.0783 15.4859 14.0311 15.6047 14.0311H21.291C21.4098 14.0311 21.5237 14.0783 21.6078 14.1623C21.6918 14.2463 21.739 14.3602 21.739 14.4791V19.4261C21.739 19.5449 21.6918 19.6589 21.6078 19.7429C21.5237 19.8269 21.4098 19.8741 21.291 19.8741ZM16.0527 18.9781H20.843V14.9271H16.0527V18.9781Z" fill="black"/>
<path d="M18.448 19.8741C18.3292 19.8741 18.2152 19.8269 18.1312 19.7429C18.0472 19.6589 18 19.5449 18 19.4261V14.4791C18 14.3602 18.0472 14.2463 18.1312 14.1623C18.2152 14.0783 18.3292 14.0311 18.448 14.0311C18.5668 14.0311 18.6808 14.0783 18.7648 14.1623C18.8488 14.2463 18.896 14.3602 18.896 14.4791V19.4261C18.896 19.5449 18.8488 19.6589 18.7648 19.7429C18.6808 19.8269 18.5668 19.8741 18.448 19.8741Z" fill="black"/>
<path d="M21.291 17.4006H15.6047C15.4859 17.4006 15.372 17.3534 15.288 17.2694C15.2039 17.1854 15.1567 17.0714 15.1567 16.9526C15.1567 16.8338 15.2039 16.7198 15.288 16.6358C15.372 16.5518 15.4859 16.5046 15.6047 16.5046H21.291C21.4098 16.5046 21.5237 16.5518 21.6078 16.6358C21.6918 16.7198 21.739 16.8338 21.739 16.9526C21.739 17.0714 21.6918 17.1854 21.6078 17.2694C21.5237 17.3534 21.4098 17.4006 21.291 17.4006Z" fill="black"/>
<path d="M24.812 11.8311H3.18816C3.08864 11.8316 2.99177 11.799 2.91285 11.7384C2.83393 11.6777 2.77745 11.5926 2.75231 11.4963C2.72718 11.4 2.73483 11.298 2.77405 11.2066C2.81327 11.1151 2.88183 11.0393 2.96892 10.9911L13.7808 4.92407C13.8478 4.8865 13.9233 4.86676 14.0001 4.86676C14.0769 4.86676 14.1524 4.8865 14.2193 4.92407L25.0321 10.9925C25.1192 11.0407 25.1877 11.1165 25.2269 11.208C25.2662 11.2994 25.2738 11.4014 25.2487 11.4977C25.2235 11.594 25.1671 11.6791 25.0881 11.7398C25.0092 11.8004 24.9124 11.833 24.8128 11.8325L24.812 11.8311ZM4.90176 10.9351H23.0984L14.0001 5.82875L4.90176 10.9351Z" fill="black"/>
<path d="M19.1008 8.62595C18.982 8.62595 18.8681 8.57875 18.784 8.49473C18.7 8.41071 18.6528 8.29676 18.6528 8.17795V5.51795C18.6528 5.39913 18.7 5.28518 18.784 5.20116C18.8681 5.11715 18.982 5.06995 19.1008 5.06995C19.2196 5.06995 19.3336 5.11715 19.4176 5.20116C19.5016 5.28518 19.5488 5.39913 19.5488 5.51795V8.17795C19.5488 8.29676 19.5016 8.41071 19.4176 8.49473C19.3336 8.57875 19.2196 8.62595 19.1008 8.62595Z" fill="black"/>
<path d="M22.7922 10.6979C22.6734 10.6979 22.5595 10.6507 22.4755 10.5667C22.3914 10.4827 22.3442 10.3688 22.3442 10.2499V5.51795C22.3442 5.39913 22.3914 5.28518 22.4755 5.20116C22.5595 5.11715 22.6734 5.06995 22.7922 5.06995C22.9111 5.06995 23.025 5.11715 23.109 5.20116C23.193 5.28518 23.2402 5.39913 23.2402 5.51795V10.2499C23.2402 10.3688 23.193 10.4827 23.109 10.5667C23.025 10.6507 22.9111 10.6979 22.7922 10.6979Z" fill="black"/>
<path d="M23.7372 5.96679H18.1565C18.0377 5.96679 17.9237 5.91959 17.8397 5.83557C17.7557 5.75156 17.7085 5.63761 17.7085 5.51879V2.79999C17.7085 2.68117 17.7557 2.56722 17.8397 2.48321C17.9237 2.39919 18.0377 2.35199 18.1565 2.35199H23.7372C23.856 2.35199 23.9699 2.39919 24.054 2.48321C24.138 2.56722 24.1852 2.68117 24.1852 2.79999V5.51879C24.1852 5.63761 24.138 5.75156 24.054 5.83557C23.9699 5.91959 23.856 5.96679 23.7372 5.96679ZM18.6045 5.07079H23.2892V3.24799H18.6045V5.07079Z" fill="black"/>
</svg>
