<svg width="15" height="16" viewBox="0 0 15 16" fill="none" xmlns="http://www.w3.org/2000/svg">
<path d="M7.25 0.75C6.24935 0.75 5.31006 0.938802 4.43213 1.31641C3.54476 1.69401 2.77303 2.21086 2.11694 2.86694C1.46086 3.52303 0.94401 4.29476 0.566406 5.18213C0.188802 6.06006 0 6.99935 0 8C0 9.00065 0.188802 9.93994 0.566406 10.8179C0.94401 11.7052 1.46086 12.477 2.11694 13.1331C2.77303 13.7891 3.54476 14.306 4.43213 14.6836C5.31006 15.0612 6.24935 15.25 7.25 15.25C8.25065 15.25 9.18994 15.0612 10.0679 14.6836C10.9552 14.306 11.727 13.7891 12.3831 13.1331C13.0391 12.477 13.556 11.7052 13.9336 10.8179C14.3112 9.93994 14.5 9.00065 14.5 8C14.5 6.99935 14.3112 6.06006 13.9336 5.18213C13.556 4.29476 13.0391 3.52303 12.3831 2.86694C11.727 2.21086 10.9552 1.69401 10.0679 1.31641C9.18994 0.938802 8.25065 0.75 7.25 0.75ZM7.25 3.48291C7.58984 3.48291 7.87777 3.60091 8.11377 3.83691C8.34977 4.07292 8.46777 4.36084 8.46777 4.70068C8.46777 5.04053 8.34977 5.32845 8.11377 5.56445C7.87777 5.80046 7.58984 5.91846 7.25 5.91846C6.91016 5.91846 6.62223 5.80046 6.38623 5.56445C6.15023 5.32845 6.03223 5.04053 6.03223 4.70068C6.03223 4.36084 6.15023 4.07292 6.38623 3.83691C6.62223 3.60091 6.91016 3.48291 7.25 3.48291ZM9.35986 10.6338C9.05778 11.0397 8.73682 11.3961 8.39697 11.7029C8.05713 12.0097 7.76449 12.2197 7.51904 12.333C7.2736 12.4652 7.04704 12.5242 6.83936 12.51C6.63167 12.4958 6.48535 12.3377 6.40039 12.0356C6.36263 11.8846 6.33903 11.6203 6.32959 11.2427C6.32015 10.8745 6.32015 10.4875 6.32959 10.0815C6.33903 9.67562 6.34847 9.30273 6.35791 8.96289C6.36735 8.63249 6.37207 8.42952 6.37207 8.354C6.36263 8.23128 6.26587 8.23364 6.08179 8.36108C5.89771 8.48853 5.70654 8.62777 5.5083 8.77881C5.48942 8.79769 5.46582 8.81185 5.4375 8.82129C5.40918 8.83073 5.38086 8.83545 5.35254 8.83545C5.31478 8.83545 5.27702 8.82837 5.23926 8.81421C5.2015 8.80005 5.17318 8.77409 5.1543 8.73633C5.13542 8.71745 5.12126 8.69385 5.11182 8.66553C5.10238 8.63721 5.09766 8.60889 5.09766 8.58057C5.09766 8.55225 5.10238 8.52393 5.11182 8.49561C5.12126 8.46729 5.13542 8.44369 5.1543 8.4248C5.46582 8.06608 5.8151 7.72152 6.20215 7.39111C6.58919 7.06071 6.9668 6.80111 7.33496 6.6123C7.54264 6.50846 7.71729 6.48486 7.85889 6.5415C8.00049 6.59814 8.10905 6.76335 8.18457 7.03711C8.21289 7.16927 8.22705 7.41471 8.22705 7.77344C8.21761 8.12272 8.20581 8.49089 8.19165 8.87793C8.17749 9.26497 8.16097 9.6237 8.14209 9.9541C8.12321 10.2845 8.11377 10.4922 8.11377 10.5771C8.13265 10.8415 8.23885 10.9076 8.43237 10.7754C8.6259 10.6432 8.81234 10.4922 8.9917 10.3223C9.01058 10.3034 9.03654 10.2869 9.06958 10.2727C9.10262 10.2585 9.1333 10.2515 9.16162 10.2515C9.2277 10.2515 9.2867 10.2751 9.33862 10.3223C9.39054 10.3695 9.4165 10.4261 9.4165 10.4922C9.4165 10.5205 9.41178 10.5465 9.40234 10.5701C9.3929 10.5937 9.37874 10.6149 9.35986 10.6338Z" fill="black"/>
</svg>
