<svg width="15" height="16" viewBox="0 0 15 16" fill="none" xmlns="http://www.w3.org/2000/svg">
<path d="M9.19202 15.0659C8.94657 15.0659 8.69169 15.0518 8.42737 15.0234C8.16304 14.9951 7.894 14.9479 7.62024 14.8818C7.19543 14.7686 6.78479 14.6222 6.38831 14.4429C5.99182 14.2729 5.60478 14.0747 5.22717 13.8481C4.84957 13.6216 4.4814 13.3667 4.12268 13.0835C3.76396 12.8097 3.41939 12.5029 3.08899 12.1631C2.78691 11.861 2.5037 11.5448 2.23938 11.2144C1.96562 10.8745 1.71545 10.5252 1.48889 10.1665C1.26233 9.80778 1.05937 9.43962 0.880005 9.06201C0.700643 8.69385 0.549601 8.32096 0.42688 7.94336C0.247518 7.41471 0.148397 6.87663 0.129517 6.3291C0.110636 5.77214 0.167277 5.22933 0.299438 4.70068C0.4316 4.17204 0.639282 3.66699 0.922485 3.18555C1.19625 2.69466 1.53609 2.24626 1.94202 1.84033L2.84827 0.934082C2.97099 0.81136 3.11259 0.75 3.27307 0.75C3.43355 0.75 3.57515 0.81136 3.69788 0.934082L7.43616 4.67236C7.55888 4.79508 7.62024 4.93669 7.62024 5.09717C7.62024 5.25765 7.55888 5.39925 7.43616 5.52197L5.45374 7.5752L7.74768 9.86914L9.7301 7.81592C9.79618 7.75928 9.86226 7.71444 9.92834 7.6814C9.99443 7.64836 10.0699 7.63184 10.1549 7.63184C10.2493 7.63184 10.3295 7.64836 10.3956 7.6814C10.4617 7.71444 10.5231 7.75928 10.5797 7.81592L14.3322 11.5684C14.4454 11.6911 14.5021 11.8327 14.5021 11.9932C14.5021 12.1536 14.4454 12.2905 14.3322 12.4038L13.4825 13.2534C13.2088 13.5461 12.9067 13.8009 12.5763 14.0181C12.2553 14.2446 11.9108 14.4358 11.5426 14.5916C11.1744 14.7473 10.7921 14.8677 10.3956 14.9526C9.99915 15.0282 9.59794 15.0659 9.19202 15.0659ZM3.32971 2.19434L2.84827 2.68994C2.51786 3.02034 2.23938 3.37907 2.01282 3.76611C1.78625 4.1626 1.61869 4.57324 1.51013 4.99805C1.40157 5.42285 1.35201 5.85238 1.36145 6.28662C1.37089 6.72087 1.44169 7.15039 1.57385 7.5752C1.69657 7.9056 1.8429 8.24072 2.01282 8.58057C2.1733 8.91097 2.35502 9.23665 2.55798 9.55762C2.76095 9.87858 2.98515 10.1901 3.23059 10.4922C3.46659 10.7848 3.72148 11.0633 3.99524 11.3276C4.28788 11.6108 4.58997 11.8752 4.90149 12.1206C5.21301 12.366 5.5387 12.5903 5.87854 12.7932C6.21838 12.9962 6.56295 13.1732 6.91223 13.3242C7.26152 13.4658 7.62024 13.5838 7.9884 13.6782C8.41321 13.7821 8.83801 13.834 9.26282 13.834C9.69706 13.8245 10.1171 13.7655 10.5231 13.657C10.929 13.5484 11.316 13.3903 11.6842 13.1826C12.0618 12.9655 12.4017 12.7059 12.7037 12.4038L13.1144 11.9932L10.2257 9.09033L8.22913 11.1436C8.16304 11.2002 8.09932 11.245 8.03796 11.2781C7.9766 11.3111 7.89872 11.3276 7.80432 11.3276C7.70992 11.3276 7.62968 11.3111 7.5636 11.2781C7.49752 11.245 7.43616 11.2002 7.37952 11.1436L4.23596 8C4.11324 7.87728 4.05188 7.73568 4.05188 7.5752C4.05188 7.41471 4.11324 7.27311 4.23596 7.15039L6.23254 5.09717L3.32971 2.19434Z" fill="white"/>
</svg>
