<svg width="28" height="28" viewBox="0 0 28 28" fill="none" xmlns="http://www.w3.org/2000/svg">
<g clip-path="url(#clip0_1_197)">
<path d="M1.42467 23.1306H25.9549V7.44299H22.2794L21.4537 9.54711C21.4004 9.65365 21.3205 9.74243 21.214 9.81345C21.1075 9.88448 20.992 9.91999 20.8678 9.91999H6.4852C6.3609 9.91999 6.24549 9.88448 6.13895 9.81345C6.03241 9.74243 5.96139 9.65365 5.92587 9.54711L5.07357 7.44299H1.42467V23.1306ZM26.5675 24.3824H0.785442C0.625636 24.3824 0.483586 24.3203 0.359292 24.196C0.234998 24.0717 0.172852 23.9297 0.172852 23.7699V6.80377C0.172852 6.64396 0.234998 6.50191 0.359292 6.37762C0.483586 6.25332 0.625636 6.19118 0.785442 6.19118H5.49972C5.62402 6.19118 5.73943 6.22669 5.84597 6.29772C5.95251 6.36874 6.03241 6.4664 6.08568 6.59069L6.91135 8.69481H20.4682L21.2939 6.59069C21.3472 6.4664 21.4226 6.36874 21.5203 6.29772C21.618 6.22669 21.7378 6.19118 21.8799 6.19118H26.5675C26.7451 6.19118 26.896 6.25332 27.0203 6.37762C27.1446 6.50191 27.2067 6.64396 27.2067 6.80377V23.7699C27.2067 23.9297 27.1446 24.0717 27.0203 24.196C26.896 24.3203 26.7451 24.3824 26.5675 24.3824ZM8.85565 8.69481H18.5239V7.30982C18.5239 7.06123 18.4396 6.8526 18.2709 6.68391C18.1022 6.51523 17.8936 6.43089 17.645 6.43089H9.70795C9.47712 6.43089 9.27736 6.51523 9.10868 6.68391C8.94 6.8526 8.85565 7.06123 8.85565 7.30982V8.69481ZM19.1365 9.91999H8.24306C8.0655 9.91999 7.91457 9.86228 7.79028 9.74687C7.66599 9.63145 7.60384 9.48496 7.60384 9.3074V7.30982C7.60384 6.72387 7.81247 6.22669 8.22975 5.8183C8.64702 5.4099 9.13975 5.20571 9.70795 5.20571H17.645C18.2309 5.20571 18.7281 5.4099 19.1365 5.8183C19.5449 6.22669 19.7491 6.72387 19.7491 7.30982V9.3074C19.7491 9.48496 19.6914 9.63145 19.576 9.74687C19.4606 9.86228 19.3141 9.91999 19.1365 9.91999ZM2.41014 6.19118H3.1559V4.45995H2.41014V6.19118ZM3.76849 7.44299H1.79755C1.61999 7.44299 1.46906 7.38085 1.34476 7.25655C1.22047 7.13226 1.15832 6.98133 1.15832 6.80377V3.82072C1.15832 3.64316 1.22047 3.49667 1.34476 3.38125C1.46906 3.26584 1.61999 3.20813 1.79755 3.20813H3.76849C3.94605 3.20813 4.09254 3.26584 4.20796 3.38125C4.32337 3.49667 4.38108 3.64316 4.38108 3.82072V6.80377C4.38108 6.98133 4.32337 7.13226 4.20796 7.25655C4.09254 7.38085 3.94605 7.44299 3.76849 7.44299ZM24.2237 6.19118H24.9694V4.45995H24.2237V6.19118ZM25.582 7.44299H23.6111C23.4335 7.44299 23.2826 7.38085 23.1583 7.25655C23.034 7.13226 22.9719 6.98133 22.9719 6.80377V3.82072C22.9719 3.64316 23.034 3.49667 23.1583 3.38125C23.2826 3.26584 23.4335 3.20813 23.6111 3.20813H25.582C25.7596 3.20813 25.9061 3.26584 26.0215 3.38125C26.1369 3.49667 26.1946 3.64316 26.1946 3.82072V6.80377C26.1946 6.98133 26.1369 7.13226 26.0215 7.25655C25.9061 7.38085 25.7596 7.44299 25.582 7.44299ZM23.105 16.8982H18.6571C18.4795 16.8982 18.3286 16.8405 18.2043 16.7251C18.08 16.6097 18.0179 16.4632 18.0179 16.2856C18.0179 16.108 18.08 15.9571 18.2043 15.8328C18.3286 15.7085 18.4795 15.6464 18.6571 15.6464H23.105C23.2826 15.6464 23.4291 15.7085 23.5445 15.8328C23.6599 15.9571 23.7176 16.108 23.7176 16.2856C23.7176 16.4632 23.6599 16.6097 23.5445 16.7251C23.4291 16.8405 23.2826 16.8982 23.105 16.8982ZM8.72248 16.8982H4.27454C4.09698 16.8982 3.94605 16.8405 3.82176 16.7251C3.69747 16.6097 3.63532 16.4632 3.63532 16.2856C3.63532 16.108 3.69747 15.9571 3.82176 15.8328C3.94605 15.7085 4.09698 15.6464 4.27454 15.6464H8.72248C8.90004 15.6464 9.04653 15.7085 9.16195 15.8328C9.27736 15.9571 9.33507 16.108 9.33507 16.2856C9.33507 16.4632 9.27736 16.6097 9.16195 16.7251C9.04653 16.8405 8.90004 16.8982 8.72248 16.8982ZM6.4852 19.1355C6.32539 19.1355 6.18334 19.0778 6.05905 18.9624C5.93475 18.8469 5.8726 18.7004 5.8726 18.5229V14.0483C5.8726 13.8708 5.93475 13.7198 6.05905 13.5955C6.18334 13.4712 6.32539 13.4091 6.4852 13.4091C6.66276 13.4091 6.81369 13.4712 6.93798 13.5955C7.06227 13.7198 7.12442 13.8708 7.12442 14.0483V18.5229C7.12442 18.7004 7.06227 18.8469 6.93798 18.9624C6.81369 19.0778 6.66276 19.1355 6.4852 19.1355Z" fill="black"/>
</g>
<defs>
<clipPath id="clip0_1_197">
<rect width="27.2736" height="27.8302" fill="white" transform="matrix(1 0 0 -1 0.172852 27.8302)"/>
</clipPath>
</defs>
</svg>
