<svg width="28" height="28" viewBox="0 0 28 28" fill="none" xmlns="http://www.w3.org/2000/svg">
<g clip-path="url(#clip0_1_192)">
<path d="M14.1028 0.358686L14.1827 0.411955L14.7154 0.731567C14.893 0.855862 15.0794 0.971277 15.2748 1.07781C15.4701 1.18435 15.6743 1.29089 15.8873 1.39743L16.4999 1.71704C17.512 2.21421 18.5552 2.65812 19.6295 3.04876C20.7037 3.43939 21.7824 3.77676 22.8655 4.06086C23.1852 4.14964 23.487 4.22511 23.7711 4.28725C24.0552 4.3494 24.3304 4.40711 24.5968 4.46038L25.1561 4.59355L25.7687 4.70009C25.893 4.71784 26.004 4.77555 26.1016 4.87321C26.1993 4.97087 26.2481 5.08185 26.2481 5.20614C26.3191 6.34254 26.3325 7.43455 26.2881 8.48217C26.2437 9.52979 26.1505 10.533 26.0084 11.4918C25.9729 11.6339 25.9063 11.7538 25.8086 11.8514C25.711 11.9491 25.5911 11.9979 25.4491 11.9979C25.2893 11.9979 25.1517 11.9402 25.0362 11.8248C24.9208 11.7094 24.8631 11.5718 24.8631 11.4119C24.8631 11.3942 24.8631 11.3809 24.8631 11.372C24.8631 11.3631 24.872 11.3498 24.8898 11.332H24.8631C25.0052 10.4975 25.0984 9.63632 25.1428 8.74851C25.1872 7.8607 25.1916 6.94625 25.1561 6.00517L25.1295 5.73883L24.7566 5.65892C24.2772 5.57014 23.8466 5.48136 23.4648 5.39258C23.0831 5.3038 22.7057 5.20614 22.3329 5.0996L22.5992 5.17951C21.4628 4.87765 20.3397 4.52696 19.23 4.12745C18.1202 3.72793 17.0415 3.26183 15.9939 2.72915C15.6032 2.53383 15.2481 2.34739 14.9285 2.16982C14.6089 1.99226 14.2982 1.8147 13.9963 1.63714L14.1295 1.71704L13.8099 1.5306L13.4903 1.71704C13.2949 1.82358 13.0952 1.93899 12.891 2.06329C12.6868 2.18758 12.4781 2.303 12.2651 2.40953L11.6258 2.72915C10.5782 3.26183 9.49954 3.72793 8.38977 4.12745C7.28001 4.52696 6.15693 4.87765 5.02053 5.17951C4.62989 5.26829 4.25257 5.35707 3.88857 5.44585C3.52456 5.53463 3.18276 5.60566 2.86314 5.65892L2.49026 5.73883V5.84537C2.40148 7.60323 2.45475 9.25456 2.65007 10.7994C2.82763 12.3441 3.12505 13.7824 3.54232 15.1141C3.95959 16.4458 4.48784 17.671 5.12706 18.7897C5.76629 19.9261 6.50317 20.9648 7.33772 21.9059L7.63069 22.1989C8.21665 22.8381 8.847 23.424 9.52173 23.9567C10.1965 24.4894 10.9156 24.9688 11.6791 25.395L11.759 25.4483C12.1141 25.6436 12.4471 25.8123 12.7578 25.9543C13.0685 26.0964 13.3393 26.2118 13.5702 26.3006L13.7832 26.3805L14.0229 26.3006C15.1416 25.9099 16.1803 25.395 17.1392 24.7558C18.098 24.1165 18.9814 23.3663 19.7893 22.5052C20.5972 21.644 21.3296 20.6629 21.9866 19.5621C22.6258 18.4612 23.194 17.2449 23.6912 15.9132L23.8777 15.4337C23.9132 15.3272 23.9798 15.2429 24.0774 15.1807C24.1751 15.1186 24.286 15.0875 24.4103 15.0875C24.5524 15.0875 24.6811 15.1408 24.7965 15.2473C24.912 15.3538 24.9697 15.487 24.9697 15.6468C24.9697 15.6823 24.9652 15.7134 24.9563 15.74C24.9475 15.7667 24.943 15.7889 24.943 15.8066C24.4103 17.3337 23.78 18.7186 23.052 19.9616C22.324 21.2223 21.5028 22.3409 20.5883 23.3175C19.6739 24.2941 18.6662 25.1286 17.5653 25.8211C16.4644 26.5314 15.2659 27.0996 13.9697 27.5257C13.9519 27.5257 13.9253 27.5302 13.8898 27.5391C13.8543 27.5479 13.8187 27.5524 13.7832 27.5524C13.7655 27.5524 13.7388 27.5479 13.7033 27.5391C13.6678 27.5302 13.6412 27.5257 13.6234 27.5257C13.3216 27.437 12.9664 27.3038 12.5581 27.1262C12.1497 26.9487 11.6969 26.7178 11.1997 26.4337C10.3474 25.9543 9.55725 25.4261 8.82924 24.849C8.10123 24.2719 7.4265 23.646 6.80503 22.9713H6.77839C5.83731 21.9414 5.00277 20.805 4.27476 19.5621C3.54676 18.3191 2.94748 16.9608 2.47694 15.487C2.0064 14.0132 1.67347 12.4241 1.47816 10.7195C1.30059 9.01485 1.26508 7.17708 1.37162 5.20614C1.38937 5.08185 1.44264 4.97087 1.53142 4.87321C1.62021 4.77555 1.72674 4.71784 1.85104 4.70009L2.30382 4.62018L2.65007 4.54028C2.96968 4.48701 3.30261 4.42043 3.64886 4.34052C3.9951 4.26062 4.36355 4.1674 4.75418 4.06086C5.83731 3.77676 6.91601 3.43939 7.99026 3.04876C9.06451 2.65812 10.1077 2.21421 11.1198 1.71704C11.4927 1.53948 11.8345 1.36635 12.1452 1.19767C12.456 1.02898 12.7534 0.855862 13.0375 0.678299L12.9043 0.731567L13.4636 0.385321L13.5169 0.358686C13.5524 0.340931 13.5835 0.323174 13.6101 0.305418C13.6367 0.287663 13.6678 0.278784 13.7033 0.278784L13.7832 0.305418H13.8099C13.8809 0.287663 13.9342 0.283222 13.9697 0.292101C14.0052 0.30098 14.0496 0.323174 14.1028 0.358686ZM13.6501 10.1868C13.6856 10.098 13.7522 10.027 13.8498 9.97369C13.9475 9.92042 14.0496 9.89379 14.1561 9.89379C14.2626 9.89379 14.3603 9.92042 14.4491 9.97369C14.5379 10.027 14.6089 10.098 14.6622 10.1868L15.5944 12.1044L17.6985 12.3974C17.8228 12.4152 17.9338 12.4773 18.0314 12.5839C18.1291 12.6904 18.1779 12.8147 18.1779 12.9567C18.1779 13.0278 18.169 13.0899 18.1513 13.1432C18.1335 13.1964 18.1069 13.2497 18.0714 13.303L17.9915 13.3563L16.4999 14.8478L16.8462 16.9253C16.8462 16.943 16.8462 16.9608 16.8462 16.9785C16.8462 16.9963 16.8462 17.014 16.8462 17.0318C16.8462 17.1916 16.7929 17.3248 16.6864 17.4313C16.5798 17.5378 16.4467 17.5911 16.2869 17.5911C16.2513 17.5911 16.2203 17.5911 16.1936 17.5911C16.167 17.5911 16.1359 17.5822 16.1004 17.5645L16.0205 17.5378L14.1561 16.5524L12.2917 17.5378C12.2384 17.5556 12.1896 17.5689 12.1452 17.5778C12.1008 17.5867 12.0609 17.5911 12.0254 17.5911C11.8656 17.5911 11.7279 17.5378 11.6125 17.4313C11.4971 17.3248 11.4394 17.1916 11.4394 17.0318L11.466 16.9253L11.8123 14.8478L10.2941 13.3563C10.2409 13.3207 10.2009 13.2675 10.1743 13.1964C10.1476 13.1254 10.1343 13.0455 10.1343 12.9567C10.1343 12.8324 10.1698 12.7215 10.2409 12.6238C10.3119 12.5261 10.4007 12.4596 10.5072 12.4241L10.6137 12.3974L12.7179 12.1044L13.6501 10.1868ZM14.1561 11.7316L13.5968 12.8768C13.5613 12.9479 13.5036 13.01 13.4237 13.0633C13.3438 13.1165 13.2594 13.1521 13.1706 13.1698L11.9188 13.3563L12.8244 14.2352C12.8777 14.2885 12.9176 14.3506 12.9442 14.4216C12.9709 14.4927 12.9842 14.5637 12.9842 14.6347V14.7412L12.7711 15.9931L13.8898 15.4071C13.9253 15.3893 13.9652 15.3716 14.0096 15.3538C14.054 15.3361 14.1028 15.3272 14.1561 15.3272C14.1916 15.3272 14.2227 15.3316 14.2493 15.3405C14.276 15.3494 14.2982 15.3538 14.3159 15.3538L14.4225 15.4071L15.5411 15.9931L15.328 14.7412C15.328 14.7235 15.3236 14.7057 15.3147 14.688C15.3058 14.6702 15.3014 14.6525 15.3014 14.6347C15.3014 14.5814 15.3103 14.5282 15.328 14.4749C15.3458 14.4216 15.3724 14.3684 15.4079 14.3151L15.4878 14.2352L16.3934 13.3563L15.1416 13.1698C15.0706 13.1698 15.004 13.1476 14.9418 13.1032C14.8797 13.0588 14.822 13.01 14.7687 12.9567L14.7154 12.8768L14.1561 11.7316ZM22.0932 8.69524C22.1109 8.69524 22.1198 8.69524 22.1198 8.69524C22.2796 8.69524 22.4128 8.74851 22.5193 8.85505C22.6258 8.96159 22.688 9.08588 22.7057 9.22793C22.7413 9.97369 22.7146 10.715 22.6258 11.4519C22.5371 12.1888 22.4128 12.9212 22.253 13.6492C22.2174 13.809 22.1819 13.9644 22.1464 14.1153C22.1109 14.2663 22.0665 14.4128 22.0132 14.5548L21.8268 15.194C21.8091 15.2295 21.8002 15.2517 21.8002 15.2606C21.8002 15.2695 21.7913 15.2828 21.7735 15.3006L21.8002 15.2739C21.7469 15.3805 21.6759 15.4692 21.5871 15.5403C21.4983 15.6113 21.3918 15.6468 21.2675 15.6468C21.1077 15.6468 20.9701 15.5891 20.8547 15.4737C20.7392 15.3583 20.6815 15.2207 20.6815 15.0609C20.6815 15.0253 20.686 14.9943 20.6948 14.9676C20.7037 14.941 20.717 14.9099 20.7348 14.8744L20.8147 14.5814L20.8413 14.4749C20.8946 14.3151 20.9479 14.142 21.0011 13.9555C21.0544 13.7691 21.0988 13.5782 21.1343 13.3829C21.2941 12.7082 21.414 12.0245 21.4939 11.332C21.5738 10.6395 21.596 9.95593 21.5605 9.2812C21.5605 9.2812 21.5605 9.27676 21.5605 9.26788C21.5605 9.259 21.5605 9.25456 21.5605 9.25456C21.5605 9.09476 21.6137 8.96159 21.7203 8.85505C21.8268 8.74851 21.9511 8.69524 22.0932 8.69524Z" fill="black"/>
</g>
<defs>
<clipPath id="clip0_1_192">
<rect width="27.2736" height="27.8302" fill="white" transform="matrix(1 0 0 -1 0.173828 27.8302)"/>
</clipPath>
</defs>
</svg>
