<svg width="16" height="16" viewBox="0 0 16 16" fill="none" xmlns="http://www.w3.org/2000/svg">
<g clip-path="url(#clip0_417_2494)">
<g clip-path="url(#clip1_417_2494)">
<mask id="mask0_417_2494" style="mask-type:alpha" maskUnits="userSpaceOnUse" x="-1" y="0" width="17" height="16">
<path fill-rule="evenodd" clip-rule="evenodd" d="M7.98123 13.9048C7.72104 13.768 7.41021 13.768 7.15002 13.9048L3.36355 15.8954C2.70832 16.2398 1.94253 15.6835 2.06766 14.9539L2.79082 10.7376C2.84051 10.4479 2.74445 10.1523 2.53395 9.94709L-0.529359 6.96109C-1.05944 6.44438 -0.766938 5.54414 -0.03438 5.4377L4.19902 4.82254C4.48992 4.78027 4.74139 4.59757 4.87149 4.33397L6.76472 0.497859C7.09234 -0.165952 8.03891 -0.165953 8.36651 0.497856L10.2597 4.33397C10.3898 4.59757 10.6413 4.78027 10.9322 4.82254L15.1656 5.4377C15.8982 5.54414 16.1907 6.44438 15.6606 6.96109L12.5973 9.94709C12.3868 10.1523 12.2907 10.4479 12.3404 10.7376L13.0636 14.9539C13.1887 15.6835 12.4229 16.2398 11.7677 15.8954L7.98123 13.9048Z" fill="white"/>
</mask>
<g mask="url(#mask0_417_2494)">
<path d="M15.946 -9.16348H-0.800049V26.5615H15.946V-9.16348Z" fill="white"/>
</g>
</g>
</g>
<defs>
<clipPath id="clip0_417_2494">
<rect width="16" height="16" fill="white"/>
</clipPath>
<clipPath id="clip1_417_2494">
<rect width="17.6" height="16" fill="white" transform="translate(-0.800049)"/>
</clipPath>
</defs>
</svg>
