<svg width="28" height="28" viewBox="0 0 28 28" fill="none" xmlns="http://www.w3.org/2000/svg">
<g clip-path="url(#clip0_1_175)">
<path d="M9.04431 27.5519C8.88451 27.5519 8.74689 27.4987 8.63148 27.3921C8.51606 27.2856 8.45835 27.1524 8.45835 26.9926C8.45835 26.8506 8.50275 26.7263 8.59153 26.6197C8.68031 26.5132 8.79572 26.4511 8.93777 26.4333L9.04431 26.4067H12.7731V9.1476C12.5245 7.53178 12.0718 6.30216 11.4148 5.45874C10.7578 4.61532 9.88773 4.14034 8.8046 4.0338V4.966C8.8046 5.12581 8.74689 5.25898 8.63148 5.36552C8.51606 5.47206 8.37845 5.52532 8.21865 5.52532H6.46078C6.35424 6.14679 6.11897 6.62621 5.75497 6.96358C5.39096 7.30095 4.90711 7.46963 4.30339 7.46963C3.69968 7.46963 3.21139 7.28319 2.83851 6.91031C2.46562 6.53743 2.23479 6.01362 2.14601 5.33888L2.17265 5.52532H1.00073C0.858684 5.52532 0.738829 5.48537 0.64117 5.40547C0.543511 5.32557 0.476925 5.22347 0.441412 5.09917C0.192825 4.19361 0.303802 3.32799 0.774342 2.50232C1.24488 1.67666 1.93294 1.13065 2.83851 0.864311C3.1226 0.793285 3.41114 0.753334 3.70412 0.744455C3.9971 0.735579 4.27676 0.766651 4.5431 0.837677L8.35182 1.74324C8.47611 1.77876 8.58265 1.84534 8.67143 1.943C8.76021 2.04066 8.8046 2.16052 8.8046 2.30257V2.88852C9.67466 2.95955 10.4426 3.21257 11.1085 3.6476C11.7743 4.08263 12.3292 4.69078 12.7731 5.47206V3.42121C12.7731 3.2614 12.8264 3.12823 12.9329 3.02169C13.0395 2.91516 13.1726 2.86189 13.3324 2.86189C13.4745 2.86189 13.5988 2.90628 13.7053 2.99506C13.8119 3.08384 13.874 3.19038 13.8918 3.31467V3.42121V5.63186C14.4422 4.79732 15.0992 4.14922 15.8627 3.68755C16.6262 3.22589 17.5052 2.95955 18.4995 2.88852V2.30257C18.4995 2.16052 18.5395 2.04066 18.6194 1.943C18.6993 1.84534 18.8014 1.77876 18.9257 1.74324L22.7344 0.837677C23.0185 0.766651 23.3026 0.735579 23.5867 0.744455C23.8708 0.753334 24.1549 0.793285 24.439 0.864311C25.3623 1.13065 26.0592 1.67666 26.5298 2.50232C27.0003 3.32799 27.1024 4.19361 26.8361 5.09917C26.8006 5.22347 26.734 5.32557 26.6363 5.40547C26.5386 5.48537 26.4277 5.52532 26.3034 5.52532H25.1048V5.55196C24.9983 6.15567 24.763 6.62621 24.399 6.96358C24.035 7.30095 23.56 7.46963 22.9741 7.46963C22.3881 7.46963 21.9131 7.30095 21.5491 6.96358C21.1851 6.62621 20.941 6.14679 20.8167 5.52532H19.0588C18.899 5.52532 18.7659 5.47206 18.6593 5.36552C18.5528 5.25898 18.4995 5.12581 18.4995 4.966V4.00717C17.3809 4.1137 16.4398 4.5221 15.6763 5.23235C14.9127 5.9426 14.3179 6.98134 13.8918 8.34857V26.4067H18.1799C18.3397 26.4067 18.4729 26.4644 18.5794 26.5798C18.6859 26.6952 18.7392 26.8328 18.7392 26.9926C18.7392 27.1347 18.6948 27.2545 18.606 27.3522C18.5173 27.4498 18.4107 27.5164 18.2864 27.5519H18.1799H9.04431ZM23.9329 5.52532H21.9886C22.0596 5.80942 22.1751 6.01362 22.3349 6.13791C22.4947 6.26221 22.7077 6.32435 22.9741 6.32435C23.2404 6.32435 23.4535 6.26221 23.6133 6.13791C23.7731 6.01362 23.8797 5.80942 23.9329 5.52532ZM5.28887 5.52532H3.34456C3.41558 5.80942 3.52656 6.01362 3.67749 6.13791C3.82842 6.26221 4.03705 6.32435 4.30339 6.32435C4.56974 6.32435 4.78281 6.26221 4.94262 6.13791C5.10243 6.01362 5.21784 5.80942 5.28887 5.52532ZM24.146 1.98295C23.9507 1.92969 23.7554 1.89861 23.56 1.88973C23.3647 1.88086 23.1783 1.90305 23.0007 1.95632L19.6182 2.75535V3.42121V3.44784V4.38005H25.824V4.30014C25.8595 3.80297 25.7352 3.34131 25.4511 2.91516C25.167 2.48901 24.7852 2.18715 24.3058 2.00959L24.146 1.98295ZM3.15812 1.98295L2.97168 2.00959C2.49226 2.18715 2.11494 2.48901 1.83972 2.91516C1.56449 3.34131 1.43576 3.80297 1.45352 4.30014V4.38005H7.65932V3.44784V3.42121V2.75535L4.30339 1.95632C4.10808 1.90305 3.91276 1.88086 3.71744 1.88973C3.52212 1.89861 3.33568 1.92969 3.15812 1.98295Z" fill="black"/>
</g>
<defs>
<clipPath id="clip0_1_175">
<rect width="27.2736" height="27.8302" fill="white" transform="matrix(1 0 0 -1 0.0693359 27.8302)"/>
</clipPath>
</defs>
</svg>
