<svg width="28" height="28" viewBox="0 0 28 28" fill="none" xmlns="http://www.w3.org/2000/svg">
<g clip-path="url(#clip0_1_181)">
<path d="M26.1785 15.6996C26.2851 15.7351 26.3783 15.8017 26.4582 15.8993C26.5381 15.997 26.5781 16.108 26.5781 16.2323L26.5514 16.4454L26.5248 16.7117C26.507 16.9958 26.4626 17.271 26.3916 17.5374C26.3206 17.8037 26.2407 18.0523 26.1519 18.2831V18.2565C25.9033 18.9312 25.526 19.4639 25.0199 19.8545C24.5139 20.2452 23.888 20.4405 23.1422 20.4405C22.9824 20.4227 22.8492 20.3606 22.7427 20.2541C22.6362 20.1475 22.5829 20.0144 22.5829 19.8545C22.5829 19.6947 22.6406 19.5616 22.756 19.455C22.8714 19.3485 23.0002 19.2952 23.1422 19.2952C23.1422 19.2952 23.1467 19.2952 23.1555 19.2952C23.1644 19.2952 23.1689 19.2952 23.1689 19.2952C23.6483 19.2952 24.0433 19.1709 24.3541 18.9223C24.6648 18.6738 24.9178 18.3098 25.1132 17.8303C25.1487 17.7238 25.1886 17.5995 25.233 17.4575C25.2774 17.3154 25.3085 17.1734 25.3262 17.0313L25.3529 17.0047L25.3795 16.7117L25.4061 16.6584C24.8024 16.5164 24.2919 16.5297 23.8747 16.6984C23.4574 16.8671 23.1067 17.1645 22.8226 17.5906L22.7427 17.7238C22.6539 17.8659 22.5785 18.0079 22.5163 18.15C22.4542 18.292 22.4053 18.4429 22.3698 18.6027L22.2899 18.7892L22.2633 18.9223V22.4381H27.3238C27.4836 22.4381 27.6168 22.4914 27.7233 22.5979C27.8299 22.7044 27.8831 22.8376 27.8831 22.9974C27.8831 23.1395 27.8387 23.2637 27.75 23.3703C27.6612 23.4768 27.5546 23.539 27.4303 23.5567L27.3238 23.5834H14.566L12.8614 27.2323C12.8081 27.3033 12.7459 27.3699 12.6749 27.432C12.6039 27.4942 12.524 27.5341 12.4352 27.5519H12.3287H1.91463C1.75483 27.5519 1.61722 27.4986 1.5018 27.3921C1.38639 27.2855 1.32868 27.1524 1.32868 26.9926C1.32868 26.8505 1.37307 26.7262 1.46185 26.6197C1.55063 26.5131 1.66605 26.451 1.8081 26.4332L1.91463 26.4066H7.18824V22.9974L7.1616 22.8642C7.0018 22.4381 6.78428 22.0874 6.50906 21.8122C6.23384 21.537 5.91867 21.3283 5.56354 21.1863L5.3771 21.133C5.18178 21.0797 4.98202 21.0353 4.77783 20.9998C4.57363 20.9643 4.36499 20.9466 4.15192 20.9466C4.11641 20.9466 4.08533 20.9466 4.0587 20.9466C4.03207 20.9466 4.00099 20.9466 3.96548 20.9466H3.99211L3.6725 20.9732C3.76128 21.5059 3.90777 21.9498 4.11197 22.3049C4.31617 22.66 4.57807 22.9353 4.89768 23.1306L5.03085 23.2105C5.20842 23.317 5.3993 23.3969 5.60349 23.4502C5.80769 23.5035 6.01632 23.5301 6.2294 23.5301H6.41584C6.4336 23.5301 6.44691 23.5301 6.45579 23.5301C6.46467 23.5301 6.46911 23.5301 6.46911 23.5301C6.62892 23.5301 6.76653 23.5834 6.88194 23.6899C6.99736 23.7964 7.05507 23.9296 7.05507 24.0894C7.05507 24.2315 7.01511 24.3513 6.93521 24.449C6.85531 24.5466 6.75321 24.6132 6.62892 24.6487L6.52238 24.6754H6.46911C6.4336 24.6754 6.39808 24.6754 6.36257 24.6754C6.32706 24.6754 6.30043 24.6754 6.28267 24.6754C5.9453 24.6754 5.62569 24.6354 5.32383 24.5555C5.02198 24.4756 4.73788 24.3646 4.47153 24.2226H4.49817C3.91221 23.903 3.44611 23.4369 3.09986 22.8243C2.75362 22.2117 2.55386 21.4437 2.50059 20.5204C2.50059 20.5204 2.50059 20.516 2.50059 20.5071C2.50059 20.4982 2.50059 20.4938 2.50059 20.4938C2.50059 20.3517 2.54054 20.2319 2.62044 20.1342C2.70035 20.0366 2.80245 19.97 2.92674 19.9345L3.08655 19.9078L3.27299 19.8812C3.66362 19.8279 4.06758 19.8102 4.48485 19.8279C4.90212 19.8457 5.30608 19.9167 5.69671 20.041C6.10511 20.1653 6.47799 20.3428 6.81536 20.5737C7.15272 20.8045 7.4457 21.0975 7.69429 21.4526C7.71205 21.3993 7.73424 21.355 7.76088 21.3194C7.78751 21.2839 7.80971 21.2395 7.82746 21.1863C8.27137 20.4583 8.86176 19.9522 9.59865 19.6681C10.3355 19.384 11.2189 19.4018 12.2488 19.7214C12.3553 19.7746 12.4441 19.8501 12.5151 19.9478C12.5861 20.0454 12.6216 20.1564 12.6216 20.2807V20.4671L12.595 20.7601L12.5684 20.9199C12.5506 21.1685 12.5107 21.4127 12.4485 21.6524C12.3864 21.8921 12.3109 22.1185 12.2221 22.3315V22.3049C11.9735 22.9796 11.5962 23.5123 11.0902 23.903C10.5841 24.2936 9.95821 24.4801 9.21245 24.4623C9.05264 24.4623 8.91947 24.409 8.81293 24.3025C8.7064 24.196 8.65313 24.0628 8.65313 23.903C8.65313 23.7432 8.7064 23.61 8.81293 23.5035C8.91947 23.3969 9.05264 23.3437 9.21245 23.3437C9.70962 23.3437 10.1136 23.2194 10.4243 22.9708C10.735 22.7222 10.9881 22.3582 11.1834 21.8788C11.2189 21.7545 11.2589 21.6257 11.3032 21.4926C11.3476 21.3594 11.3787 21.2218 11.3965 21.0797V21.0531L11.4497 20.7601V20.7068V20.6802C10.846 20.5559 10.34 20.5781 9.93158 20.7468C9.52318 20.9155 9.17694 21.204 8.89284 21.6124L8.81293 21.7722C8.72415 21.9143 8.64869 22.0563 8.58654 22.1984C8.52439 22.3404 8.46669 22.4825 8.41342 22.6245L8.38678 22.7311L8.36015 22.8909L8.33351 22.9708V26.4066H11.9824L13.687 22.7577C13.7225 22.6689 13.7758 22.5979 13.8468 22.5446C13.9179 22.4914 13.9978 22.4558 14.0865 22.4381H14.1132H14.1931H21.1446V18.9756L21.0914 18.8158C20.9316 18.3897 20.7185 18.0434 20.4521 17.7771C20.1858 17.5107 19.8662 17.3065 19.4933 17.1645L19.3069 17.0846C19.1116 17.0313 18.9118 16.9869 18.7076 16.9514C18.5034 16.9159 18.2948 16.8981 18.0817 16.8981C18.0462 16.8981 18.0151 16.8981 17.9885 16.8981C17.9618 16.8981 17.9396 16.8981 17.9219 16.8981L17.6023 16.9248C17.6911 17.4752 17.8375 17.9236 18.0417 18.2698C18.2459 18.6161 18.5078 18.8957 18.8275 19.1088L18.9606 19.1887C19.1737 19.2952 19.3823 19.3707 19.5865 19.4151C19.7907 19.4595 19.9816 19.4817 20.1592 19.4817H20.3456C20.3634 19.4817 20.3767 19.4817 20.3856 19.4817C20.3944 19.4817 20.3989 19.4817 20.3989 19.4817C20.5587 19.4817 20.6963 19.5394 20.8117 19.6548C20.9271 19.7702 20.9848 19.9078 20.9848 20.0676C20.9848 20.2097 20.936 20.334 20.8383 20.4405C20.7407 20.547 20.6208 20.6092 20.4788 20.6269H20.3989C20.3634 20.6269 20.3323 20.6269 20.3057 20.6269C20.279 20.6269 20.248 20.6269 20.2124 20.6269C19.8751 20.6269 19.5555 20.587 19.2536 20.5071C18.9517 20.4272 18.6676 20.3162 18.4013 20.1742H18.4279C17.842 19.8723 17.3759 19.4151 17.0296 18.8025C16.6834 18.1899 16.4836 17.4131 16.4304 16.472C16.4304 16.472 16.4304 16.4675 16.4304 16.4587C16.4304 16.4498 16.4304 16.4454 16.4304 16.4454C16.4304 16.3033 16.4703 16.1834 16.5502 16.0858C16.6301 15.9881 16.7322 15.9215 16.8565 15.886L17.0163 15.8594L17.2294 15.8328C17.6023 15.7795 17.9973 15.7617 18.4146 15.7795C18.8319 15.7972 19.2358 15.8683 19.6265 15.9926C20.0349 16.1346 20.4078 16.3211 20.7451 16.5519C21.0825 16.7827 21.3755 17.0668 21.6241 17.4042C21.6418 17.3687 21.664 17.3287 21.6906 17.2843C21.7173 17.2399 21.7395 17.1911 21.7572 17.1378C22.2011 16.4098 22.7915 15.9038 23.5284 15.6197C24.2653 15.3356 25.1487 15.3622 26.1785 15.6996ZM10.4376 0.54464C10.5442 0.580153 10.6374 0.646738 10.7173 0.744396C10.7972 0.842056 10.8371 0.953033 10.8371 1.07733L10.8105 1.18386V1.42357C10.775 1.72543 10.7262 2.01841 10.664 2.30251C10.6019 2.58661 10.5175 2.86183 10.411 3.12817L10.4376 3.10154C10.1713 3.77628 9.78509 4.30896 9.27903 4.6996C8.77298 5.09024 8.14707 5.27668 7.40131 5.25892C7.24151 5.25892 7.10833 5.20565 7.0018 5.09912C6.89526 4.99258 6.84199 4.85941 6.84199 4.6996C6.84199 4.53979 6.8997 4.40662 7.01511 4.30008C7.13053 4.19355 7.25926 4.14028 7.40131 4.14028C7.40131 4.14028 7.40575 4.14028 7.41463 4.14028C7.42351 4.14028 7.42795 4.14028 7.42795 4.14028C7.90736 4.14028 8.30244 4.01598 8.61317 3.7674C8.92391 3.51881 9.17694 3.15481 9.37225 2.67539C9.40777 2.56885 9.44772 2.44456 9.49211 2.30251C9.5365 2.16046 9.56757 2.01841 9.58533 1.87636L9.61196 1.84972L9.6386 1.55675L9.66523 1.50348C9.06152 1.36143 8.55103 1.37474 8.13376 1.54343C7.71649 1.71211 7.3658 2.00953 7.0817 2.43568L7.0018 2.56885C6.91302 2.7109 6.83755 2.85295 6.7754 2.995C6.71326 3.13705 6.66443 3.28798 6.62892 3.44778L6.54901 3.71413L6.52238 3.7674V7.01679H11.1834C11.2899 7.01679 11.3831 7.03898 11.4631 7.08337C11.543 7.12777 11.6095 7.18547 11.6628 7.2565L11.6894 7.3364L14.3262 13.0095H18.641V9.54705L18.5877 9.38725C18.4279 8.9611 18.2149 8.61485 17.9485 8.34851C17.6822 8.08216 17.3626 7.87797 16.9897 7.73592L16.8032 7.65601C16.6079 7.60275 16.4082 7.55835 16.204 7.52284C15.9998 7.48733 15.7911 7.46957 15.5781 7.46957C15.5425 7.46957 15.5115 7.46957 15.4848 7.46957C15.4582 7.46957 15.436 7.46957 15.4183 7.46957L15.0986 7.49621C15.1874 8.04665 15.3339 8.495 15.5381 8.84124C15.7423 9.18749 16.0042 9.46715 16.3238 9.68023L16.457 9.76013C16.6701 9.86666 16.8787 9.94213 17.0829 9.98652C17.2871 10.0309 17.478 10.0531 17.6555 10.0531H17.842C17.8597 10.0531 17.8731 10.0531 17.8819 10.0531C17.8908 10.0531 17.8953 10.0531 17.8953 10.0531C18.0551 10.0531 18.1927 10.1108 18.3081 10.2262C18.4235 10.3416 18.4812 10.4793 18.4812 10.6391C18.4812 10.7811 18.4324 10.9054 18.3347 11.0119C18.2371 11.1185 18.1172 11.1806 17.9752 11.1984H17.8953C17.8597 11.1984 17.8287 11.1984 17.802 11.1984C17.7754 11.1984 17.7443 11.1984 17.7088 11.1984C17.3714 11.1984 17.0518 11.1584 16.75 11.0785C16.4481 10.9986 16.164 10.8876 15.8977 10.7456H15.9243C15.3384 10.4437 14.8722 9.98652 14.526 9.37393C14.1798 8.76134 13.98 7.9845 13.9267 7.04342C13.9267 7.04342 13.9267 7.03898 13.9267 7.03011C13.9267 7.02123 13.9267 7.01679 13.9267 7.01679C13.9267 6.87474 13.9667 6.75488 14.0466 6.65722C14.1265 6.55956 14.2286 6.49298 14.3529 6.45747L14.5127 6.43083L14.7258 6.4042C15.0986 6.35093 15.4937 6.33317 15.911 6.35093C16.3283 6.36869 16.7411 6.43971 17.1495 6.564C17.5401 6.70605 17.9041 6.89249 18.2415 7.12333C18.5789 7.35416 18.8718 7.63826 19.1204 7.97563C19.1382 7.94011 19.1604 7.90016 19.187 7.85577C19.2136 7.81138 19.2358 7.76255 19.2536 7.70928C19.6975 6.98128 20.2879 6.47522 21.0248 6.19112C21.7617 5.90702 22.645 5.93366 23.6749 6.27103C23.7814 6.30654 23.8747 6.37313 23.9546 6.47078C24.0345 6.56844 24.0744 6.67942 24.0744 6.80371L24.0478 6.91025V7.14996C24.0123 7.45182 23.9634 7.74479 23.9013 8.02889C23.8392 8.31299 23.7548 8.58821 23.6483 8.85456L23.6749 8.82792C23.4086 9.50266 23.0224 10.0353 22.5163 10.426C22.0103 10.8166 21.3843 11.0119 20.6386 11.0119C20.4788 10.9942 20.3456 10.932 20.2391 10.8255C20.1325 10.719 20.0793 10.5858 20.0793 10.426C20.0793 10.2662 20.137 10.133 20.2524 10.0265C20.3678 9.91993 20.4965 9.86666 20.6386 9.86666C20.6386 9.86666 20.643 9.86666 20.6519 9.86666C20.6608 9.86666 20.6652 9.86666 20.6652 9.86666C21.1446 9.86666 21.5397 9.74237 21.8505 9.49378C22.1612 9.2452 22.4142 8.88119 22.6095 8.40178C22.645 8.29524 22.685 8.17094 22.7294 8.02889C22.7738 7.88684 22.8048 7.74479 22.8226 7.60275L22.8492 7.57611L22.8759 7.28313L22.9025 7.22986C22.2988 7.08781 21.7883 7.10113 21.371 7.26982C20.9538 7.4385 20.6031 7.73592 20.319 8.16207L20.2391 8.29524C20.1503 8.43729 20.0748 8.57934 20.0127 8.72139C19.9505 8.86344 19.9017 9.01437 19.8662 9.17417L19.8129 9.36061L19.7597 9.49378V13.0095H27.4037C27.528 13.0095 27.6434 13.0539 27.75 13.1427C27.8565 13.2315 27.9275 13.3469 27.963 13.4889V13.5955C27.963 13.7198 27.9186 13.8352 27.8299 13.9417C27.7411 14.0483 27.6345 14.1193 27.5103 14.1548H27.4037H13.98C13.8735 14.1548 13.7802 14.1326 13.7003 14.0882C13.6204 14.0438 13.5538 13.9861 13.5006 13.9151L13.4473 13.8352L10.8105 8.13543H1.99454C1.85249 8.13543 1.72819 8.09104 1.62166 8.00226C1.51512 7.91348 1.45297 7.80694 1.43522 7.68265L1.40858 7.57611C1.40858 7.43406 1.45297 7.31421 1.54175 7.21655C1.63053 7.11889 1.74595 7.0523 1.888 7.01679H1.99454H5.40373V3.82067L5.35047 3.66086C5.19066 3.23471 4.97758 2.88402 4.71124 2.6088C4.4449 2.33358 4.12529 2.12494 3.7524 1.98289L3.56596 1.92963C3.37065 1.87636 3.17089 1.83197 2.96669 1.79645C2.76249 1.76094 2.55386 1.74319 2.34078 1.74319C2.32303 1.74319 2.29639 1.74319 2.26088 1.74319C2.22537 1.74319 2.19873 1.74319 2.18098 1.74319L1.86136 1.76982C1.95015 2.32026 2.09664 2.76861 2.30083 3.11485C2.50503 3.4611 2.76693 3.73188 3.08655 3.9272L3.21972 4.03374C3.43279 4.14028 3.64143 4.21574 3.84562 4.26013C4.04982 4.30452 4.2407 4.32672 4.41826 4.32672H4.6047C4.62246 4.32672 4.63578 4.32672 4.64466 4.32672C4.65353 4.32672 4.66685 4.32672 4.68461 4.32672C4.84441 4.32672 4.98202 4.38443 5.09744 4.49984C5.21286 4.61526 5.27056 4.74399 5.27056 4.88604C5.27056 5.04585 5.21729 5.17902 5.11076 5.28555C5.00422 5.39209 4.87993 5.45424 4.73788 5.472H4.65797C4.62246 5.472 4.59139 5.472 4.56475 5.472C4.53812 5.472 4.50704 5.472 4.47153 5.472C4.13416 5.472 3.81455 5.43204 3.5127 5.35214C3.21084 5.27224 2.92674 5.16126 2.6604 5.01921H2.68703C2.10107 4.71736 1.63497 4.26013 1.28873 3.64754C0.94248 3.03495 0.742722 2.25812 0.689453 1.31704C0.689453 1.31704 0.689453 1.3126 0.689453 1.30372C0.689453 1.29484 0.689453 1.2904 0.689453 1.2904C0.689453 1.14835 0.729405 1.0285 0.809308 0.930838C0.889211 0.833178 0.991309 0.766592 1.1156 0.731079L1.27541 0.704445L1.48848 0.677811C1.86136 0.624542 2.25644 0.606787 2.67371 0.624542C3.09098 0.642298 3.49494 0.713324 3.88558 0.837618C4.29397 0.979668 4.66685 1.16611 5.00422 1.39694C5.34159 1.62777 5.63457 1.91187 5.88315 2.24924C5.90091 2.21373 5.9231 2.17377 5.94974 2.12938C5.97637 2.08499 5.99857 2.03616 6.01632 1.98289C6.46023 1.25489 7.05063 0.748837 7.78751 0.464737C8.52439 0.180635 9.40777 0.20727 10.4376 0.54464Z" fill="black"/>
</g>
<defs>
<clipPath id="clip0_1_181">
<rect width="27.2736" height="27.8302" fill="white" transform="matrix(1 0 0 -1 0.689453 27.8302)"/>
</clipPath>
</defs>
</svg>
