<svg width="28" height="28" viewBox="0 0 28 28" fill="none" xmlns="http://www.w3.org/2000/svg">
<path d="M24.9375 14.875V8.75C25.283 8.746 25.6129 8.60596 25.8558 8.36025C26.0987 8.11453 26.2349 7.78297 26.2349 7.43747C26.2349 7.09198 26.0987 6.76042 25.8558 6.51472C25.6129 6.26901 25.2829 6.12898 24.9374 6.125H20.125C20.009 6.12488 19.8978 6.07875 19.8158 5.99673C19.7337 5.91471 19.6876 5.8035 19.6875 5.6875V4.8125C19.6866 4.00057 19.3636 3.22216 18.7895 2.64803C18.2153 2.07391 17.4369 1.75095 16.625 1.75H11.375C10.5631 1.75095 9.78466 2.07391 9.21053 2.64803C8.63641 3.22216 8.31345 4.00057 8.3125 4.8125V5.6875C8.31238 5.8035 8.26625 5.91471 8.18423 5.99673C8.10221 6.07875 7.991 6.12488 7.875 6.125H3.0625C2.7144 6.125 2.38056 6.26328 2.13442 6.50942C1.88828 6.75556 1.75 7.0894 1.75 7.4375C1.75 7.7856 1.88828 8.11944 2.13442 8.36558C2.38056 8.61172 2.7144 8.75 3.0625 8.75V14.875C2.7144 14.875 2.38056 15.0133 2.13442 15.2594C1.88828 15.5056 1.75 15.8394 1.75 16.1875C1.75 16.5356 1.88828 16.8694 2.13442 17.1156C2.38056 17.3617 2.7144 17.5 3.0625 17.5V25.8125C3.06247 25.87 3.07376 25.9269 3.09574 25.98C3.11771 26.0331 3.14994 26.0813 3.19057 26.1219C3.2312 26.1626 3.27944 26.1948 3.33254 26.2168C3.38563 26.2387 3.44254 26.25 3.5 26.25H24.5C24.5575 26.25 24.6144 26.2387 24.6675 26.2168C24.7206 26.1948 24.7688 26.1626 24.8094 26.1219C24.8501 26.0813 24.8823 26.0331 24.9043 25.98C24.9262 25.9269 24.9375 25.87 24.9375 25.8125V17.5C25.2856 17.5 25.6194 17.3617 25.8656 17.1156C26.1117 16.8694 26.25 16.5356 26.25 16.1875C26.25 15.8394 26.1117 15.5056 25.8656 15.2594C25.6194 15.0133 25.2856 14.875 24.9375 14.875ZM2.625 7.4375C2.62512 7.3215 2.67125 7.21029 2.75327 7.12827C2.83529 7.04625 2.9465 7.00012 3.0625 7H7.875C8.22298 6.99962 8.5566 6.86122 8.80266 6.61516C9.04872 6.3691 9.18712 6.03548 9.1875 5.6875V4.8125C9.18818 4.23255 9.41887 3.67654 9.82896 3.26646C10.239 2.85637 10.795 2.62568 11.375 2.625H16.625C17.205 2.62568 17.761 2.85637 18.171 3.26646C18.5811 3.67654 18.8118 4.23255 18.8125 4.8125V5.6875C18.8129 6.03548 18.9513 6.3691 19.1973 6.61516C19.4434 6.86122 19.777 6.99962 20.125 7H24.9375C25.0523 7.00185 25.1618 7.04877 25.2423 7.13061C25.3229 7.21246 25.368 7.32269 25.368 7.43751C25.368 7.55234 25.3228 7.66256 25.2423 7.7444C25.1618 7.82625 25.0523 7.87315 24.9375 7.875H20.125C19.545 7.87432 18.989 7.64363 18.579 7.23354C18.1689 6.82346 17.9382 6.26745 17.9375 5.6875V4.8125C17.9371 4.46452 17.7987 4.1309 17.5527 3.88484C17.3066 3.63878 16.973 3.50038 16.625 3.5H11.375C11.027 3.50038 10.6934 3.63878 10.4473 3.88484C10.2013 4.1309 10.0629 4.46452 10.0625 4.8125V5.6875C10.0618 6.26745 9.83113 6.82346 9.42104 7.23354C9.01096 7.64363 8.45495 7.87432 7.875 7.875H3.0625C2.9465 7.87488 2.83529 7.82875 2.75327 7.74673C2.67125 7.66471 2.62512 7.5535 2.625 7.4375ZM20.125 8.75H24.0625V14.875H3.9375V8.75H7.875C8.68693 8.74905 9.46534 8.42609 10.0395 7.85197C10.6136 7.27784 10.9366 6.49943 10.9375 5.6875V4.8125C10.9376 4.6965 10.9837 4.58529 11.0658 4.50327C11.1478 4.42125 11.259 4.37512 11.375 4.375H16.625C16.741 4.37512 16.8522 4.42125 16.9342 4.50327C17.0163 4.58529 17.0624 4.6965 17.0625 4.8125V5.6875C17.0634 6.49943 17.3864 7.27784 17.9605 7.85197C18.5347 8.42609 19.3131 8.74905 20.125 8.75ZM3.9375 25.375V17.5H6.5621L6.56247 25.375H3.9375ZM16.1875 25.375H11.8125V19.25H16.1875V25.375ZM17.0625 25.375V18.8125C17.0625 18.755 17.0512 18.6981 17.0293 18.645C17.0073 18.5919 16.9751 18.5437 16.9344 18.5031C16.8938 18.4624 16.8456 18.4302 16.7925 18.4082C16.7394 18.3863 16.6825 18.375 16.625 18.375H11.375C11.3175 18.375 11.2606 18.3863 11.2075 18.4082C11.1544 18.4302 11.1062 18.4624 11.0656 18.5031C11.0249 18.5437 10.9927 18.5919 10.9707 18.645C10.9488 18.6981 10.9375 18.755 10.9375 18.8125V25.375H7.43747L7.4371 17.5H20.5621L20.5625 25.375H17.0625ZM24.0625 25.375H21.4375L21.4371 17.5H24.0625V25.375ZM24.9375 16.625H3.0625C2.94764 16.6232 2.83809 16.5763 2.7575 16.4945C2.67691 16.4126 2.63174 16.3024 2.63174 16.1875C2.63174 16.0726 2.67692 15.9624 2.75752 15.8805C2.83811 15.7986 2.94767 15.7518 3.06253 15.75H24.9375C25.0523 15.7519 25.1618 15.7988 25.2423 15.8806C25.3229 15.9625 25.368 16.0727 25.368 16.1875C25.368 16.3023 25.3229 16.4125 25.2423 16.4944C25.1618 16.5762 25.0523 16.6231 24.9375 16.625Z" fill="black"/>
<path d="M8.75 9.625H5.25C5.19254 9.62499 5.13565 9.63629 5.08256 9.65827C5.02947 9.68025 4.98124 9.71248 4.94061 9.75311C4.89998 9.79374 4.86775 9.84197 4.84577 9.89506C4.82379 9.94814 4.81249 10.005 4.8125 10.0625V13.5625C4.81249 13.62 4.82379 13.6769 4.84577 13.7299C4.86775 13.783 4.89998 13.8313 4.94061 13.8719C4.98124 13.9125 5.02947 13.9447 5.08256 13.9667C5.13565 13.9887 5.19254 14 5.25 14H8.75C8.80746 14 8.86436 13.9887 8.91744 13.9667C8.97053 13.9447 9.01876 13.9125 9.05939 13.8719C9.10002 13.8313 9.13225 13.783 9.15423 13.7299C9.17621 13.6769 9.18751 13.62 9.1875 13.5625V10.0625C9.18751 10.005 9.17621 9.94814 9.15423 9.89506C9.13225 9.84197 9.10002 9.79374 9.05939 9.75311C9.01876 9.71248 8.97053 9.68025 8.91744 9.65827C8.86436 9.63629 8.80746 9.62499 8.75 9.625ZM8.3125 13.125H5.6875V10.5H8.3125V13.125Z" fill="black"/>
<path d="M15.75 9.625H12.25C12.1925 9.62499 12.1356 9.63629 12.0826 9.65827C12.0295 9.68025 11.9812 9.71248 11.9406 9.75311C11.9 9.79374 11.8678 9.84197 11.8458 9.89506C11.8238 9.94814 11.8125 10.005 11.8125 10.0625V13.5625C11.8125 13.62 11.8238 13.6769 11.8458 13.7299C11.8678 13.783 11.9 13.8313 11.9406 13.8719C11.9812 13.9125 12.0295 13.9447 12.0826 13.9667C12.1356 13.9887 12.1925 14 12.25 14H15.75C15.8075 14 15.8644 13.9887 15.9174 13.9667C15.9705 13.9447 16.0188 13.9125 16.0594 13.8719C16.1 13.8313 16.1322 13.783 16.1542 13.7299C16.1762 13.6769 16.1875 13.62 16.1875 13.5625V10.0625C16.1875 10.005 16.1762 9.94814 16.1542 9.89506C16.1322 9.84197 16.1 9.79374 16.0594 9.75311C16.0188 9.71248 15.9705 9.68025 15.9174 9.65827C15.8644 9.63629 15.8075 9.62499 15.75 9.625ZM15.3125 13.125H12.6875V10.5H15.3125V13.125Z" fill="black"/>
<path d="M19.25 14H22.75C22.8075 14 22.8644 13.9887 22.9174 13.9667C22.9705 13.9447 23.0188 13.9125 23.0594 13.8719C23.1 13.8313 23.1322 13.783 23.1542 13.7299C23.1762 13.6769 23.1875 13.62 23.1875 13.5625V10.0625C23.1875 10.005 23.1762 9.94814 23.1542 9.89506C23.1322 9.84197 23.1 9.79374 23.0594 9.75311C23.0188 9.71248 22.9705 9.68025 22.9174 9.65827C22.8644 9.63629 22.8075 9.62499 22.75 9.625H19.25C19.1925 9.62499 19.1356 9.63629 19.0826 9.65827C19.0295 9.68025 18.9812 9.71248 18.9406 9.75311C18.9 9.79374 18.8678 9.84197 18.8458 9.89506C18.8238 9.94814 18.8125 10.005 18.8125 10.0625V13.5625C18.8125 13.62 18.8238 13.6769 18.8458 13.7299C18.8678 13.783 18.9 13.8313 18.9406 13.8719C18.9812 13.9125 19.0295 13.9447 19.0826 13.9667C19.1356 13.9887 19.1925 14 19.25 14ZM19.6875 10.5H22.3125V13.125H19.6875V10.5Z" fill="black"/>
</svg>
