<svg width="28" height="28" viewBox="0 0 28 28" fill="none" xmlns="http://www.w3.org/2000/svg">
<g clip-path="url(#clip0_1_169)">
<path d="M13.8375 8.82816C14.4057 8.82816 14.9251 8.8326 15.3956 8.84148C15.8661 8.85036 16.2079 8.86367 16.421 8.88143C16.8649 8.91694 17.2689 9.02348 17.6329 9.20104C17.9969 9.3786 18.2854 9.60943 18.4985 9.89353L22.174 14.8475C22.2806 15.0073 22.3605 15.1627 22.4137 15.3136C22.467 15.4646 22.4937 15.6288 22.4937 15.8064C22.4937 16.1792 22.3605 16.5166 22.0941 16.8185C21.8278 17.1203 21.4815 17.36 21.0554 17.5376L25.2903 23.9032C25.4323 24.0985 25.5344 24.2983 25.5966 24.5025C25.6587 24.7067 25.6898 24.9153 25.6898 25.1284C25.6898 25.4302 25.6232 25.7188 25.49 25.994C25.3568 26.2692 25.1748 26.5223 24.944 26.7531C24.9263 26.7708 24.9129 26.7842 24.9041 26.793C24.8952 26.8019 24.8819 26.8152 24.8641 26.833C24.8641 26.8507 24.8552 26.8641 24.8375 26.8729C24.8197 26.8818 24.8108 26.8863 24.8108 26.8863C24.7753 26.9218 24.7398 26.9573 24.7043 26.9928C24.6688 27.0283 24.6333 27.0549 24.5978 27.0727C24.2604 27.3213 23.8786 27.5122 23.4525 27.6453C23.0263 27.7785 22.5824 27.8451 22.1208 27.8451H4.88834C4.63975 27.8451 4.3956 27.8229 4.1559 27.7785C3.91619 27.7341 3.68979 27.6764 3.47672 27.6054C3.44121 27.6054 3.41013 27.6009 3.3835 27.5921C3.35686 27.5832 3.32579 27.5699 3.29028 27.5521C3.18374 27.4988 3.10384 27.4278 3.05057 27.339C2.9973 27.2503 2.97067 27.1437 2.97067 27.0194C2.97067 26.9306 2.98398 26.8552 3.01062 26.793C3.03725 26.7309 3.0772 26.6643 3.13047 26.5933C3.2015 26.5578 3.26808 26.5223 3.33023 26.4867C3.39238 26.4512 3.46784 26.4335 3.55662 26.4335C3.59213 26.4335 3.62321 26.4379 3.64984 26.4468C3.67648 26.4557 3.70755 26.4601 3.74306 26.4601C3.74306 26.4601 3.7475 26.4601 3.75638 26.4601C3.76526 26.4601 3.77858 26.469 3.79633 26.4867C3.95614 26.54 4.12482 26.58 4.30238 26.6066C4.47995 26.6332 4.67527 26.6465 4.88834 26.6465H13.5179C13.9263 26.6465 14.2725 26.5001 14.5566 26.2071C14.8407 25.9141 14.9828 25.5634 14.9828 25.155C14.9828 24.7644 14.8407 24.4226 14.5566 24.1296C14.2725 23.8366 13.9263 23.6901 13.5179 23.6901H6.69948C6.53967 23.6901 6.40206 23.6324 6.28664 23.517C6.17123 23.4016 6.11352 23.264 6.11352 23.1042C6.11352 22.9266 6.17123 22.7801 6.28664 22.6647C6.40206 22.5493 6.53967 22.4916 6.69948 22.4916H13.5179C14.2459 22.4916 14.8718 22.7535 15.3956 23.2773C15.9194 23.8011 16.1813 24.427 16.1813 25.155C16.1813 25.4391 16.1414 25.7055 16.0615 25.9541C15.9816 26.2026 15.8706 26.4335 15.7285 26.6465H22.1208C22.5114 26.6465 22.8577 26.5977 23.1595 26.5001C23.4614 26.4024 23.7188 26.2737 23.9319 26.1139C23.9319 26.0961 23.9363 26.0872 23.9452 26.0872C23.9541 26.0872 23.9585 26.0872 23.9585 26.0872C23.9585 26.0695 23.9674 26.0517 23.9852 26.034C24.0029 26.0162 24.0118 26.0073 24.0118 26.0073C24.0118 26.0073 24.0162 26.0029 24.0251 25.994C24.034 25.9851 24.0384 25.9807 24.0384 25.9807C24.0562 25.9629 24.074 25.9496 24.0917 25.9407C24.1095 25.9319 24.1272 25.9185 24.145 25.9008C24.2693 25.7765 24.3581 25.6522 24.4113 25.5279C24.4646 25.4036 24.4912 25.2704 24.4912 25.1284C24.4912 25.0396 24.4779 24.9464 24.4513 24.8487C24.4246 24.7511 24.3758 24.6578 24.3048 24.5691L24.0917 24.2228C24.074 24.2228 24.0651 24.2184 24.0651 24.2095C24.0651 24.2006 24.0651 24.1962 24.0651 24.1962L24.0118 24.1429L23.9852 24.1163L19.7769 17.7507H7.20553L2.94403 24.1962L2.9174 24.2228L2.67769 24.5691C2.62442 24.6578 2.58003 24.7511 2.54452 24.8487C2.509 24.9464 2.49125 25.0396 2.49125 25.1284C2.49125 25.1639 2.49125 25.1905 2.49125 25.2083C2.49125 25.226 2.49125 25.2438 2.49125 25.2616L2.51788 25.3415V25.3681C2.51788 25.4391 2.509 25.5013 2.49125 25.5545C2.47349 25.6078 2.44686 25.6611 2.41134 25.7143L2.25154 25.8742C2.19827 25.9097 2.145 25.9363 2.09173 25.9541C2.03846 25.9718 1.98519 25.9807 1.93193 25.9807C1.80763 25.9807 1.69666 25.9496 1.599 25.8875C1.50134 25.8253 1.42587 25.741 1.3726 25.6344V25.6078C1.35485 25.5901 1.34597 25.5679 1.34597 25.5412C1.34597 25.5146 1.34597 25.4924 1.34597 25.4746C1.32821 25.4569 1.31934 25.4391 1.31934 25.4214C1.31934 25.4036 1.31934 25.3859 1.31934 25.3681V25.3415C1.31934 25.306 1.31934 25.2704 1.31934 25.2349C1.31934 25.1994 1.31934 25.1639 1.31934 25.1284C1.31934 24.9153 1.35041 24.7067 1.41256 24.5025C1.4747 24.2983 1.56792 24.0985 1.69222 23.9032L5.92708 17.511C5.50093 17.3512 5.15912 17.1203 4.90166 16.8185C4.64419 16.5166 4.51546 16.1792 4.51546 15.8064C4.51546 15.6288 4.54653 15.4646 4.60868 15.3136C4.67083 15.1627 4.74629 15.0073 4.83507 14.8475L8.53725 9.89353C8.73257 9.60943 9.01667 9.3786 9.38955 9.20104C9.76243 9.02348 10.1708 8.91694 10.6147 8.88143C10.81 8.86367 11.1474 8.85036 11.6268 8.84148C12.1063 8.8326 12.6212 8.82816 13.1716 8.82816H13.8375ZM13.0917 10.0533H10.961C10.5881 10.0533 10.2729 10.111 10.0155 10.2265C9.75799 10.3419 9.57599 10.4617 9.46945 10.586L5.79391 15.5667C5.77615 15.6022 5.7584 15.6377 5.74064 15.6732C5.72288 15.7087 5.71401 15.7531 5.71401 15.8064C5.71401 15.9307 5.82054 16.0727 6.03362 16.2325C6.24669 16.3923 6.55743 16.4989 6.96582 16.5521C7.01909 16.5699 7.06792 16.5788 7.11231 16.5788C7.1567 16.5788 7.19665 16.5788 7.23216 16.5788H19.7237C19.7592 16.5788 19.8036 16.5788 19.8568 16.5788C19.9101 16.5788 19.9634 16.5699 20.0167 16.5521H20.0699C20.4606 16.4989 20.7669 16.3923 20.9888 16.2325C21.2108 16.0727 21.3217 15.9307 21.3217 15.8064C21.3217 15.7531 21.3129 15.7087 21.2951 15.6732C21.2773 15.6377 21.2507 15.6022 21.2152 15.5667L17.5397 10.586C17.4509 10.4617 17.2778 10.3419 17.0203 10.2265C16.7628 10.111 16.4477 10.0533 16.0748 10.0533H13.9174C13.9351 10.0533 13.9485 10.0578 13.9573 10.0667C13.9662 10.0755 13.9707 10.08 13.9707 10.08L14.0239 10.1599L15.6753 14.3148H18.5518C18.7116 14.3148 18.8492 14.3681 18.9646 14.4746C19.08 14.5812 19.1377 14.7055 19.1377 14.8475C19.1377 14.9896 19.08 15.1139 18.9646 15.2204C18.8492 15.3269 18.7116 15.3802 18.5518 15.3802H15.3823C15.3113 15.3802 15.2313 15.3625 15.1426 15.3269C15.0538 15.2914 14.9828 15.247 14.9295 15.1938L13.4912 11.3052L12.0796 15.1938C12.0263 15.247 11.9598 15.2914 11.8799 15.3269C11.8 15.3625 11.7156 15.3802 11.6268 15.3802H8.45734C8.29754 15.3802 8.15993 15.3269 8.04451 15.2204C7.9291 15.1139 7.87139 14.9896 7.87139 14.8475C7.87139 14.7055 7.9291 14.5812 8.04451 14.4746C8.15993 14.3681 8.29754 14.3148 8.45734 14.3148H11.3339L13.0118 10.1599L13.0385 10.08C13.0562 10.08 13.0695 10.0755 13.0784 10.0667C13.0873 10.0578 13.0917 10.0533 13.0917 10.0533ZM13.6244 0.837852C14.5832 0.837852 15.3912 1.17078 16.0481 1.83664C16.7051 2.5025 17.0336 3.30597 17.0336 4.24705C17.0336 5.18813 16.7051 5.9916 16.0481 6.65746C15.3912 7.32332 14.5832 7.65625 13.6244 7.65625C12.6833 7.65625 11.8799 7.32332 11.214 6.65746C10.5481 5.9916 10.2152 5.18813 10.2152 4.24705C10.2152 3.30597 10.5481 2.5025 11.214 1.83664C11.8799 1.17078 12.6833 0.837852 13.6244 0.837852ZM13.6244 1.98313C13.0029 1.98313 12.4703 2.20508 12.0263 2.64899C11.5824 3.09289 11.3605 3.62558 11.3605 4.24705C11.3605 4.88627 11.5824 5.42784 12.0263 5.87175C12.4703 6.31565 13.0029 6.53761 13.6244 6.53761C14.2636 6.53761 14.8052 6.31565 15.2491 5.87175C15.693 5.42784 15.915 4.88627 15.915 4.24705C15.915 3.62558 15.693 3.09289 15.2491 2.64899C14.8052 2.20508 14.2636 1.98313 13.6244 1.98313Z" fill="black"/>
</g>
<defs>
<clipPath id="clip0_1_169">
<rect width="27.2736" height="27.8302" fill="white" transform="matrix(1 0 0 -1 0.173828 27.8304)"/>
</clipPath>
</defs>
</svg>
