<svg width="104" height="32" viewBox="0 0 104 32" fill="none" xmlns="http://www.w3.org/2000/svg">
<path d="M23.8828 26.2169V6.77409H26.8875V11.572H35.3968C36.0032 11.572 36.5625 11.7279 37.0761 12.0385C37.5897 12.3504 37.9981 12.7575 38.3013 13.2637C38.6044 13.7686 38.7554 14.3329 38.7554 14.9554V26.2169H35.7507V15.0569C35.7507 14.922 35.7037 14.8094 35.6121 14.7165C35.5193 14.6237 35.4141 14.5779 35.2965 14.5779H27.3677C27.2501 14.5779 27.14 14.625 27.0397 14.7165C26.9383 14.8094 26.8888 14.9232 26.8888 15.0569V26.2169H23.8841H23.8828Z" fill="white"/>
<path d="M42.3655 25.7502C41.8606 25.4384 41.4522 25.03 41.1404 24.5251C40.8285 24.0202 40.6738 23.4558 40.6738 22.8334V14.9553C40.6738 14.3328 40.8298 13.7685 41.1404 13.2636C41.4522 12.7587 41.8606 12.3503 42.3655 12.0384C42.8704 11.7266 43.4348 11.5719 44.0572 11.5719H52.163C52.8028 11.5719 53.3746 11.7278 53.8807 12.0384C54.3856 12.3503 54.7891 12.7574 55.0923 13.2636C55.3955 13.7697 55.5464 14.3328 55.5464 14.9553V22.8334C55.5464 23.4558 55.3955 24.0202 55.0923 24.5251C54.7891 25.03 54.3856 25.4384 53.8807 25.7502C53.3758 26.0621 52.8028 26.2168 52.163 26.2168H44.0572C43.4348 26.2168 42.8704 26.0608 42.3655 25.7502ZM44.1575 23.2121H52.0603C52.1952 23.2121 52.3091 23.1663 52.4006 23.0735C52.4935 22.9806 52.5392 22.868 52.5392 22.7331V15.0567C52.5392 14.9219 52.4922 14.8092 52.4006 14.7164C52.3078 14.6236 52.194 14.5778 52.0603 14.5778H44.1575C44.0226 14.5778 43.9087 14.6248 43.8171 14.7164C43.7243 14.8092 43.6785 14.9231 43.6785 15.0567V22.7331C43.6785 22.868 43.7243 22.9819 43.8171 23.0735C43.91 23.1663 44.0226 23.2121 44.1575 23.2121Z" fill="white"/>
<path d="M60.3917 31.9986V28.9691H69.3043C69.4219 28.9691 69.5271 28.9221 69.6199 28.8305C69.7127 28.7377 69.7585 28.6238 69.7585 28.4902V26.2181H61.274C60.6676 26.2181 60.1083 26.0621 59.5947 25.7515C59.0811 25.4397 58.669 25.0313 58.3572 24.5264C58.0453 24.0215 57.8906 23.4571 57.8906 22.8347V14.9566C57.8906 14.3341 58.0465 13.7698 58.3572 13.2649C58.669 12.76 59.0811 12.3516 59.5947 12.0397C60.1083 11.7279 60.6676 11.5732 61.274 11.5732H69.4046C70.0271 11.5732 70.5951 11.7291 71.1087 12.0397C71.6222 12.3516 72.0257 12.7587 72.3202 13.2649C72.6147 13.7698 72.762 14.3341 72.762 14.9566V28.6164C72.762 29.2389 72.6147 29.8069 72.3202 30.3205C72.0257 30.834 71.621 31.2424 71.1087 31.5456C70.5951 31.8488 70.0271 31.9998 69.4046 31.9998H60.3904L60.3917 31.9986ZM61.3767 23.2121H69.3056C69.4231 23.2121 69.5283 23.1663 69.6212 23.0735C69.714 22.9807 69.7598 22.8681 69.7598 22.7332V15.0568C69.7598 14.9219 69.7127 14.8093 69.6212 14.7165C69.5283 14.6237 69.4231 14.5779 69.3056 14.5779H61.3767C61.2418 14.5779 61.128 14.6249 61.0364 14.7165C60.9448 14.8081 60.8978 14.9231 60.8978 15.0568V22.7332C60.8978 22.8681 60.9436 22.9819 61.0364 23.0735C61.1292 23.1663 61.2418 23.2121 61.3767 23.2121Z" fill="white"/>
<path d="M78.2955 26.2168C77.673 26.2168 77.105 26.0609 76.5914 25.7503C76.0779 25.4384 75.6695 25.03 75.3663 24.5251C75.0631 24.0202 74.9121 23.4559 74.9121 22.8334V17.3796H86.78V15.0568C86.78 14.9219 86.733 14.8093 86.6414 14.7165C86.5486 14.6237 86.4347 14.5779 86.3011 14.5779H74.9133V11.5732H86.4026C87.0424 11.5732 87.6141 11.7291 88.1202 12.0397C88.6252 12.3516 89.0286 12.7587 89.3318 13.2649C89.635 13.7698 89.786 14.3341 89.786 14.9566V26.2181H78.2967L78.2955 26.2168ZM78.3958 23.2121H86.7788V20.1319H77.9156V22.7332C77.9156 22.8681 77.9614 22.9819 78.0542 23.0735C78.147 23.1663 78.2609 23.2121 78.3945 23.2121H78.3958Z" fill="white"/>
<path d="M92.0059 26.2167V14.9552C92.0059 14.3328 92.1618 13.7684 92.4736 13.2635C92.7843 12.7586 93.1976 12.3502 93.7112 12.0384C94.2248 11.7265 94.7841 11.5718 95.3905 11.5718H103.546V14.5765H95.4907C95.3558 14.5765 95.242 14.6236 95.1504 14.7151C95.0588 14.8067 95.0118 14.9218 95.0118 15.0555V26.2155H92.0071L92.0059 26.2167Z" fill="white"/>
<path d="M55.7305 9.20844C55.7305 9.20844 56.3282 10.3135 57.6363 9.20844L65.4389 2.60746L72.7589 9.16636C74.2711 10.2566 74.8367 9.16636 74.8367 9.16636L65.4389 0.655884L55.7317 9.2072L55.7305 9.20844Z" fill="white"/>
<path d="M56.5637 10.191C56.4733 10.191 56.3842 10.1824 56.2964 10.1663C55.6392 10.0425 55.3311 9.50422 55.2989 9.44234L55.1133 9.09954L65.4429 0L75.4446 9.05747L75.2701 9.39284C75.2404 9.44976 74.9657 9.94972 74.3296 10.1007C73.7727 10.2331 73.1465 10.0537 72.4696 9.56485L72.4288 9.53268L65.4268 3.25841L57.9509 9.58342C57.472 9.98809 57.0067 10.191 56.5624 10.191H56.5637ZM56.4795 9.20226C56.4795 9.20226 56.4845 9.20226 56.4869 9.20349C56.6998 9.23814 56.9956 9.10821 57.3198 8.83471L65.4479 1.95777L73.0649 8.78397C73.4757 9.07603 73.8284 9.20226 74.0858 9.15028L65.433 1.31425L56.4795 9.20226Z" fill="white"/>
<path d="M65.3888 17.1025H63.8555V18.6358H65.3888V17.1025Z" fill="white"/>
<path d="M65.3888 19.0332H63.8555V20.5665H65.3888V19.0332Z" fill="white"/>
<path d="M67.3321 17.1025H65.7988V18.6358H67.3321V17.1025Z" fill="white"/>
<path d="M67.3321 19.0332H65.7988V20.5665H67.3321V19.0332Z" fill="white"/>
<path d="M4.03116 26.5946C3.30721 26.5946 2.65132 26.4177 2.06349 26.065C1.47566 25.7123 1.0054 25.242 0.652709 24.6542C0.300013 24.0664 0.123047 23.4105 0.123047 22.6865V10.9634C0.123047 10.2407 0.300013 9.58357 0.652709 8.99574C1.0054 8.40792 1.47566 7.93766 2.06349 7.58496C2.65132 7.23226 3.30721 7.0553 4.03116 7.0553H15.7543C16.4597 7.0553 17.1069 7.23103 17.6947 7.58496C18.2825 7.93766 18.7577 8.40792 19.1191 8.99574C19.4805 9.58357 19.6624 10.2395 19.6624 10.9634V22.6865C19.6624 23.4105 19.4817 24.0664 19.1191 24.6542C18.7565 25.242 18.2825 25.7123 17.6947 26.065C17.1069 26.4177 16.4597 26.5946 15.7543 26.5946H4.03116ZM4.19451 22.6593H15.5377C15.5921 22.6593 15.633 22.6457 15.6602 22.6185C15.6874 22.5912 15.701 22.5504 15.701 22.4959V11.1528C15.701 11.0983 15.6874 11.0575 15.6602 11.0302C15.633 11.003 15.5921 10.9894 15.5377 10.9894H4.19451C4.14006 10.9894 4.09922 11.003 4.072 11.0302C4.04477 11.0575 4.03116 11.0983 4.03116 11.1528V22.4959C4.03116 22.5504 4.04477 22.5912 4.072 22.6185C4.09922 22.6457 4.14006 22.6593 4.19451 22.6593Z" fill="#E90000"/>
<path d="M15.755 26.7185H4.03187C3.28811 26.7185 2.605 26.5341 2.00108 26.1715C1.39841 25.8101 0.909583 25.3213 0.546987 24.7174C0.184391 24.1135 0 23.4291 0 22.6866V10.9635C0 10.221 0.184391 9.53787 0.546987 8.93272C0.909583 8.33005 1.39841 7.83998 2.00108 7.47863C2.605 7.11603 3.28811 6.93164 4.03187 6.93164H15.755C16.4802 6.93164 17.1546 7.11603 17.7585 7.47863C18.36 7.83998 18.8537 8.32881 19.225 8.93149C19.5975 9.53664 19.7856 10.221 19.7856 10.9635V22.6866C19.7856 23.4304 19.5963 24.1135 19.225 24.7186C18.8537 25.3213 18.3612 25.8101 17.7585 26.1715C17.1534 26.5341 16.4789 26.7185 15.755 26.7185ZM4.03063 7.17915C3.33266 7.17915 2.69162 7.35116 2.12731 7.69025C1.56052 8.03057 1.09893 8.49093 0.758605 9.05895C0.419523 9.6245 0.247506 10.2655 0.247506 10.9623V22.6854C0.247506 23.3833 0.419523 24.0231 0.758605 24.5887C1.09893 25.1567 1.55929 25.6171 2.12731 25.9574C2.69286 26.2965 3.3339 26.4685 4.03063 26.4685H15.7537C16.4331 26.4685 17.0643 26.2965 17.6311 25.9574C18.1991 25.6171 18.6644 25.1555 19.0146 24.5875C19.3624 24.0219 19.5393 23.3821 19.5393 22.6854V10.9623C19.5393 10.2655 19.3624 9.62574 19.0146 9.05895C18.6644 8.49093 18.1991 8.02933 17.6311 7.68901C17.0655 7.34992 16.4344 7.17791 15.755 7.17791H4.03187L4.03063 7.17915ZM15.5372 22.7831H4.19398C4.10612 22.7831 4.03558 22.7571 3.98484 22.7064C3.9341 22.6557 3.90811 22.5851 3.90811 22.4973V11.1541C3.90811 11.0662 3.9341 10.9957 3.98484 10.9449C4.03558 10.8942 4.10612 10.8682 4.19398 10.8682H15.5372C15.625 10.8682 15.6956 10.8942 15.7463 10.9449C15.797 10.9957 15.823 11.0662 15.823 11.1541V22.4973C15.823 22.5851 15.797 22.6557 15.7463 22.7064C15.6956 22.7571 15.625 22.7831 15.5372 22.7831ZM4.15933 22.5319C4.15933 22.5319 4.17047 22.5356 4.19275 22.5356H15.5359C15.5594 22.5356 15.5693 22.5319 15.5706 22.5307C15.5706 22.5307 15.5743 22.5208 15.5743 22.496V11.1528C15.5743 11.1293 15.5706 11.1194 15.5693 11.1182C15.5693 11.1182 15.5594 11.1145 15.5359 11.1145H4.19275C4.16923 11.1145 4.15933 11.1182 4.15809 11.1194C4.15809 11.1194 4.15438 11.1293 4.15438 11.1528V22.496C4.15438 22.5195 4.15809 22.5294 4.15933 22.5319Z" fill="#E90000"/>
</svg>
