<svg width="162" height="50" viewBox="0 0 162 50" fill="none" xmlns="http://www.w3.org/2000/svg">
<path d="M37.3177 40.9638V10.5842H42.0126V18.081H55.3083C56.2558 18.081 57.1298 18.3246 57.9323 18.81C58.7348 19.2973 59.3729 19.9334 59.8466 20.7243C60.3204 21.5132 60.5563 22.395 60.5563 23.3676V40.9638H55.8614V23.5262C55.8614 23.3154 55.7879 23.1394 55.6448 22.9944C55.4998 22.8494 55.3354 22.7778 55.1517 22.7778H42.7628C42.5791 22.7778 42.407 22.8513 42.2504 22.9944C42.0918 23.1394 42.0145 23.3173 42.0145 23.5262V40.9638H37.3196H37.3177Z" fill="white"/>
<path d="M66.1966 40.2345C65.4077 39.7472 64.7696 39.1091 64.2823 38.3201C63.795 37.5312 63.5533 36.6495 63.5533 35.6768V23.3672C63.5533 22.3946 63.797 21.5129 64.2823 20.7239C64.7696 19.935 65.4077 19.2969 66.1966 18.8096C66.9855 18.3223 67.8673 18.0806 68.8399 18.0806H81.5053C82.505 18.0806 83.3984 18.3243 84.1892 18.8096C84.9781 19.2969 85.6085 19.9331 86.0823 20.7239C86.556 21.5148 86.7919 22.3946 86.7919 23.3672V35.6768C86.7919 36.6495 86.556 37.5312 86.0823 38.3201C85.6085 39.1091 84.9781 39.7472 84.1892 40.2345C83.4003 40.7217 82.505 40.9634 81.5053 40.9634H68.8399C67.8673 40.9634 66.9855 40.7198 66.1966 40.2345ZM68.9965 36.2685H81.3448C81.5556 36.2685 81.7335 36.197 81.8766 36.052C82.0216 35.9069 82.0931 35.731 82.0931 35.5202V23.5258C82.0931 23.315 82.0197 23.1391 81.8766 22.994C81.7316 22.849 81.5537 22.7775 81.3448 22.7775H68.9965C68.7858 22.7775 68.6079 22.8509 68.4648 22.994C68.3198 23.1391 68.2482 23.3169 68.2482 23.5258V35.5202C68.2482 35.731 68.3198 35.9089 68.4648 36.052C68.6098 36.197 68.7858 36.2685 68.9965 36.2685Z" fill="white"/>
<path d="M94.363 49.998V45.2644H108.289C108.473 45.2644 108.637 45.191 108.782 45.0479C108.927 44.9028 108.999 44.7249 108.999 44.5161V40.9659H95.7417C94.7942 40.9659 93.9202 40.7223 93.1178 40.2369C92.3153 39.7497 91.6714 39.1116 91.1841 38.3226C90.6968 37.5337 90.4551 36.652 90.4551 35.6793V23.3697C90.4551 22.3971 90.6988 21.5153 91.1841 20.7264C91.6714 19.9375 92.3153 19.2994 93.1178 18.8121C93.9202 18.3248 94.7942 18.0831 95.7417 18.0831H108.446C109.418 18.0831 110.306 18.3268 111.108 18.8121C111.911 19.2994 112.541 19.9355 113.001 20.7264C113.462 21.5153 113.692 22.3971 113.692 23.3697V44.7133C113.692 45.686 113.462 46.5735 113.001 47.376C112.541 48.1784 111.909 48.8165 111.108 49.2903C110.306 49.764 109.418 49.9999 108.446 49.9999H94.3611L94.363 49.998ZM95.9022 36.2691H108.291C108.475 36.2691 108.639 36.1975 108.784 36.0525C108.929 35.9075 109.001 35.7315 109.001 35.5208V23.5263C109.001 23.3156 108.927 23.1396 108.784 22.9946C108.639 22.8496 108.475 22.778 108.291 22.778H95.9022C95.6915 22.778 95.5136 22.8515 95.3705 22.9946C95.2274 23.1377 95.1539 23.3175 95.1539 23.5263V35.5208C95.1539 35.7315 95.2254 35.9094 95.3705 36.0525C95.5155 36.1975 95.6915 36.2691 95.9022 36.2691Z" fill="white"/>
<path d="M122.339 40.964C121.366 40.964 120.478 40.7204 119.676 40.235C118.874 39.7477 118.235 39.1096 117.762 38.3207C117.288 37.5318 117.052 36.65 117.052 35.6774V27.1558H135.596V23.5263C135.596 23.3156 135.522 23.1396 135.379 22.9946C135.234 22.8496 135.056 22.778 134.847 22.778H117.054V18.0831H135.006C136.006 18.0831 136.899 18.3268 137.69 18.8121C138.479 19.2994 139.109 19.9355 139.583 20.7264C140.057 21.5153 140.293 22.3971 140.293 23.3697V40.9659H122.341L122.339 40.964ZM122.495 36.2691H135.594V31.4562H121.745V35.5208C121.745 35.7315 121.817 35.9094 121.962 36.0525C122.107 36.1975 122.284 36.2691 122.493 36.2691H122.495Z" fill="white"/>
<path d="M143.76 40.9634V23.3672C143.76 22.3946 144.004 21.5129 144.491 20.7239C144.977 19.935 145.623 19.2969 146.425 18.8096C147.228 18.3223 148.102 18.0806 149.049 18.0806H161.792V22.7755H149.206C148.995 22.7755 148.817 22.849 148.674 22.9921C148.531 23.1352 148.457 23.315 148.457 23.5239V40.9615H143.762L143.76 40.9634Z" fill="white"/>
<path d="M87.0794 14.3878C87.0794 14.3878 88.0134 16.1146 90.0572 14.3878L102.249 4.07376L113.686 14.3221C116.049 16.0257 116.933 14.3221 116.933 14.3221L102.249 1.0244L87.0813 14.3859L87.0794 14.3878Z" fill="white"/>
<path d="M88.3816 15.9236C88.2405 15.9236 88.1012 15.9101 87.964 15.8849C86.9372 15.6916 86.4557 14.8504 86.4054 14.7538L86.1154 14.2181L102.256 0L117.883 14.1524L117.611 14.6764C117.564 14.7653 117.135 15.5465 116.141 15.7824C115.271 15.9893 114.293 15.709 113.235 14.9452L113.171 14.8949L102.23 5.0913L90.5492 14.9742C89.8009 15.6065 89.0739 15.9236 88.3797 15.9236H88.3816ZM88.2501 14.3786C88.2501 14.3786 88.2579 14.3786 88.2617 14.3806C88.5943 14.4347 89.0565 14.2317 89.5631 13.8043L102.263 3.05904L114.165 13.725C114.807 14.1814 115.358 14.3786 115.76 14.2974L102.24 2.05353L88.2501 14.3786Z" fill="white"/>
<path d="M102.171 26.7231H99.7751V29.1189H102.171V26.7231Z" fill="white"/>
<path d="M102.171 29.7397H99.775V32.1355H102.171V29.7397Z" fill="white"/>
<path d="M105.207 26.7229H102.812V29.1187H105.207V26.7229Z" fill="white"/>
<path d="M105.207 29.7398H102.812V32.1356H105.207V29.7398Z" fill="white"/>
<path d="M6.29824 41.5541C5.16705 41.5541 4.14222 41.2776 3.22373 40.7265C2.30525 40.1754 1.57046 39.4407 1.01937 38.5222C0.468284 37.6037 0.191772 36.5789 0.191772 35.4477V17.1302C0.191772 16.001 0.468284 14.9742 1.01937 14.0557C1.57046 13.1372 2.30525 12.4024 3.22373 11.8513C4.14222 11.3003 5.16705 11.0237 6.29824 11.0237H24.6157C25.7179 11.0237 26.7292 11.2983 27.6477 11.8513C28.5662 12.4024 29.3087 13.1372 29.8733 14.0557C30.4379 14.9742 30.7222 15.999 30.7222 17.1302V35.4477C30.7222 36.5789 30.4399 37.6037 29.8733 38.5222C29.3067 39.4407 28.5662 40.1754 27.6477 40.7265C26.7292 41.2776 25.7179 41.5541 24.6157 41.5541H6.29824ZM6.55348 35.4051H24.2773C24.3624 35.4051 24.4262 35.3839 24.4687 35.3413C24.5113 35.2988 24.5326 35.235 24.5326 35.1499V17.4261C24.5326 17.341 24.5113 17.2772 24.4687 17.2346C24.4262 17.1921 24.3624 17.1708 24.2773 17.1708H6.55348C6.4684 17.1708 6.40459 17.1921 6.36205 17.2346C6.31951 17.2772 6.29824 17.341 6.29824 17.4261V35.1499C6.29824 35.235 6.31951 35.2988 6.36205 35.3413C6.40459 35.3839 6.4684 35.4051 6.55348 35.4051Z" fill="#E90000"/>
<path d="M24.6173 41.748H6.29983C5.13771 41.748 4.07033 41.4599 3.12671 40.8933C2.18502 40.3287 1.42123 39.5649 0.854673 38.6213C0.288113 37.6777 0 36.6084 0 35.4482V17.1307C0 15.9705 0.288113 14.9031 0.854673 13.9576C1.42123 13.0159 2.18502 12.2502 3.12671 11.6855C4.07033 11.119 5.13771 10.8309 6.29983 10.8309H24.6173C25.7504 10.8309 26.8043 11.119 27.7479 11.6855C28.6876 12.2502 29.4592 13.014 30.0393 13.9557C30.6213 14.9012 30.9152 15.9705 30.9152 17.1307V35.4482C30.9152 36.6103 30.6193 37.6777 30.0393 38.6232C29.4592 39.5649 28.6896 40.3287 27.7479 40.8933C26.8023 41.4599 25.7485 41.748 24.6173 41.748ZM6.2979 11.2176C5.20732 11.2176 4.20569 11.4864 3.32394 12.0162C2.43833 12.548 1.71708 13.2673 1.18533 14.1548C0.655508 15.0385 0.38673 16.0401 0.38673 17.1288V35.4462C0.38673 36.5368 0.655508 37.5365 1.18533 38.4202C1.71708 39.3077 2.4364 40.027 3.32394 40.5588C4.20762 41.0886 5.20925 41.3574 6.2979 41.3574H24.6154C25.6769 41.3574 26.6631 41.0886 27.5487 40.5588C28.4363 40.027 29.1633 39.3058 29.7105 38.4182C30.2539 37.5346 30.5304 36.5349 30.5304 35.4462V17.1288C30.5304 16.0401 30.2539 15.0404 29.7105 14.1548C29.1633 13.2673 28.4363 12.546 27.5487 12.0143C26.665 11.4844 25.6789 11.2157 24.6173 11.2157H6.29983L6.2979 11.2176ZM24.277 35.599H6.55314C6.41585 35.599 6.30563 35.5584 6.22635 35.4791C6.14707 35.3998 6.10647 35.2896 6.10647 35.1523V17.4285C6.10647 17.2912 6.14707 17.181 6.22635 17.1017C6.30563 17.0224 6.41585 16.9818 6.55314 16.9818H24.277C24.4143 16.9818 24.5245 17.0224 24.6038 17.1017C24.683 17.181 24.7236 17.2912 24.7236 17.4285V35.1523C24.7236 35.2896 24.683 35.3998 24.6038 35.4791C24.5245 35.5584 24.4143 35.599 24.277 35.599ZM6.499 35.2065C6.499 35.2065 6.5164 35.2123 6.55121 35.2123H24.275C24.3118 35.2123 24.3272 35.2065 24.3292 35.2045C24.3292 35.2045 24.335 35.1891 24.335 35.1504V17.4265C24.335 17.3898 24.3292 17.3743 24.3272 17.3724C24.3272 17.3724 24.3118 17.3666 24.275 17.3666H6.55121C6.51447 17.3666 6.499 17.3724 6.49706 17.3743C6.49706 17.3743 6.49126 17.3898 6.49126 17.4265V35.1504C6.49126 35.1871 6.49706 35.2026 6.499 35.2065Z" fill="#E90000"/>
</svg>
