<svg width="24" height="24" viewBox="0 0 24 24" fill="none" xmlns="http://www.w3.org/2000/svg">
<g clip-path="url(#clip0_216_4059)">
<path d="M22.8279 15.6923C22.2271 14.9592 21.1141 14.8546 20.3872 15.4628L19.5893 16.1302V12.1068C19.5735 11.6419 18.9024 11.641 18.8862 12.1068V16.7184L17.0588 18.2469C16.8837 17.4749 16.1767 16.8921 15.3457 16.8921H14.5234V11.3452C14.5234 11.151 14.366 10.9936 14.1718 10.9936H9.82934C9.63518 10.9936 9.47777 11.151 9.47777 11.3452V15.9016C7.8522 15.3245 6.3288 15.6098 5.11493 16.7421V7.84683L12.0006 2.45451L18.8862 7.84772V10.584C18.8862 10.7781 19.0436 10.9355 19.2378 10.9355C19.432 10.9355 19.5893 10.7781 19.5893 10.584V8.39845L20.7423 9.30155C21.1454 9.61711 21.9589 9.50175 22.2602 9.11653C22.6274 8.64717 22.5444 7.96655 22.0752 7.59937L19.4057 5.50861V2.28844C19.648 2.33128 19.9937 2.24929 19.9937 1.93687V0.48942C19.9937 0.295264 19.8363 0.137857 19.6421 0.137857H16.1152C15.9211 0.137857 15.7637 0.295264 15.7637 0.48942V1.93687C15.7637 2.24934 16.1094 2.33128 16.3517 2.28844V3.11667L12.6671 0.230764C12.2746 -0.0765957 11.7265 -0.0765957 11.3342 0.230764L7.47959 3.24937C7.32668 3.36909 7.29982 3.59001 7.41954 3.74292C7.53931 3.89583 7.76023 3.92269 7.91309 3.80297L11.7678 0.784311C11.9048 0.67692 12.0964 0.67692 12.2335 0.784311L21.6418 8.15297C21.8058 8.28131 21.8348 8.5192 21.7064 8.68326C21.7043 8.68598 21.4766 8.9392 21.1643 8.7389L12.2174 1.73123C12.0901 1.63153 11.9111 1.63148 11.7838 1.73123L2.82377 8.74804C2.43968 9.04926 1.97393 8.45405 2.35807 8.15287L6.71365 4.74187C6.86656 4.62215 6.89341 4.40119 6.77365 4.24833C6.65402 4.09547 6.43306 4.06861 6.28015 4.18828L1.92443 7.59937C1.44424 8.0542 1.38274 8.55989 1.74002 9.11648C2.11226 9.59203 2.7948 9.66412 3.25737 9.3015L4.4118 8.39742V16.8921H3.6723V16.4115C3.6723 16.2173 3.51495 16.0599 3.32074 16.0599H1.14551C0.951352 16.0599 0.793945 16.2173 0.793945 16.4115V19.2451C0.793945 19.4393 0.951305 19.5967 1.14551 19.5967C1.33971 19.5967 1.49707 19.4393 1.49707 19.2451V16.7631H2.96918V23.2971H1.49707V20.7684C1.49707 20.5743 1.33971 20.4169 1.14551 20.4169C0.951305 20.4169 0.793945 20.5743 0.793945 20.7684V23.6487C0.793945 23.8428 0.951305 24.0002 1.14551 24.0002H3.32074C3.5149 24.0002 3.6723 23.8428 3.6723 23.6487V23.0122H5.11109L7.67932 23.7844C8.15482 23.9275 8.64827 24.0001 9.14595 24.0001H14.8566C15.5132 24.0001 16.1465 23.762 16.6399 23.3296L22.6304 18.0832C23.3119 17.487 23.4022 16.392 22.8279 15.6923ZM16.4668 0.840982H19.2905V1.58531H16.4668V0.840982ZM17.0548 2.28844H18.7026V4.95787L17.0548 3.66731V2.28844ZM10.1809 11.6968H13.8203V16.8921H11.8128C11.1646 16.8921 10.6933 16.6122 10.1809 16.2731V11.6968ZM22.1674 17.5542L16.1766 22.8008C15.8113 23.1208 15.3425 23.2971 14.8566 23.2971H9.1459C8.71695 23.2971 8.2917 23.2345 7.88182 23.1111C7.88182 23.1111 5.19701 22.3092 5.16274 22.3092H3.6723V17.5952C4.3369 17.6915 5.23713 17.5996 5.75534 17.1427C6.92496 16.1114 8.73677 16.0479 9.97423 16.9882C10.4893 17.3796 11.1423 17.5952 11.8128 17.5952H15.3457C16.7112 17.5952 16.7262 19.6552 15.365 19.6552H10.8669C10.4029 19.6704 10.4004 20.342 10.8669 20.3583H15.365C16.0666 20.3583 16.7469 19.8753 16.9935 19.2183L20.8384 16.0021C21.3582 15.6452 21.8402 15.6906 22.2843 16.1382C22.6186 16.5455 22.564 17.2071 22.1674 17.5542Z" fill="#313265"/>
<path d="M15.6191 10.9935C15.425 10.9935 15.2676 11.1509 15.2676 11.3451V14.24C15.2676 14.4342 15.4249 14.5916 15.6191 14.5916H17.8786C18.0728 14.5916 18.2302 14.4342 18.2302 14.24V11.3451C18.2302 11.1509 18.0728 10.9935 17.8786 10.9935H15.6191ZM17.527 13.8884H15.9707V11.6967H17.527V13.8884Z" fill="#313265"/>
<path d="M6.21094 10.9935C6.01678 10.9935 5.85938 11.1509 5.85938 11.3451V14.24C5.85938 14.4342 6.01673 14.5916 6.21094 14.5916H8.47041C8.66456 14.5916 8.82197 14.4342 8.82197 14.24V11.3451C8.82197 11.1509 8.66461 10.9935 8.47041 10.9935H6.21094ZM8.11884 13.8884H6.5625V11.6967H8.11884V13.8884Z" fill="#313265"/>
<path d="M9.82935 5.20374C9.63519 5.20374 9.47778 5.36114 9.47778 5.5553V9.08667C9.47778 9.28083 9.63514 9.43824 9.82935 9.43824H14.1717C14.3659 9.43824 14.5233 9.28083 14.5233 9.08667V5.5553C14.5233 5.36114 14.3659 5.20374 14.1717 5.20374H9.82935ZM13.8201 6.96942H12.3521V5.90686H13.8201V6.96942ZM11.6489 5.90681V6.96938H10.1809V5.90681H11.6489ZM10.1809 7.6725H11.649V8.73506H10.1809V7.6725ZM12.3521 8.73511V7.6725H13.8201V8.73506L12.3521 8.73511Z" fill="#313265"/>
</g>
<defs>
<clipPath id="clip0_216_4059">
<rect width="24" height="24" fill="white"/>
</clipPath>
</defs>
</svg>
