<svg width="104" height="32" viewBox="0 0 104 32" fill="none" xmlns="http://www.w3.org/2000/svg">
<path d="M23.8831 26.217V6.77417H26.8878V11.5721H35.397C36.0034 11.5721 36.5628 11.728 37.0763 12.0386C37.5899 12.3505 37.9983 12.7576 38.3015 13.2638C38.6047 13.7687 38.7557 14.333 38.7557 14.9555V26.217H35.751V15.0569C35.751 14.922 35.7039 14.8094 35.6123 14.7166C35.5195 14.6238 35.4143 14.578 35.2968 14.578H27.3679C27.2504 14.578 27.1402 14.625 27.04 14.7166C26.9385 14.8094 26.889 14.9233 26.889 15.0569V26.217H23.8843H23.8831Z" fill="#313265"/>
<path d="M42.3656 25.7504C41.8607 25.4385 41.4524 25.0301 41.1405 24.5252C40.8286 24.0203 40.674 23.456 40.674 22.8335V14.9554C40.674 14.3329 40.8299 13.7686 41.1405 13.2637C41.4524 12.7588 41.8607 12.3504 42.3656 12.0386C42.8706 11.7267 43.4349 11.572 44.0574 11.572H52.1632C52.803 11.572 53.3747 11.7279 53.8808 12.0386C54.3858 12.3504 54.7892 12.7576 55.0924 13.2637C55.3956 13.7699 55.5466 14.3329 55.5466 14.9554V22.8335C55.5466 23.456 55.3956 24.0203 55.0924 24.5252C54.7892 25.0301 54.3858 25.4385 53.8808 25.7504C53.3759 26.0622 52.803 26.2169 52.1632 26.2169H44.0574C43.4349 26.2169 42.8706 26.061 42.3656 25.7504ZM44.1576 23.2122H52.0604C52.1953 23.2122 52.3092 23.1664 52.4008 23.0736C52.4936 22.9808 52.5394 22.8682 52.5394 22.7333V15.0569C52.5394 14.922 52.4923 14.8094 52.4008 14.7166C52.308 14.6238 52.1941 14.578 52.0604 14.578H44.1576C44.0227 14.578 43.9088 14.625 43.8173 14.7166C43.7245 14.8094 43.6787 14.9232 43.6787 15.0569V22.7333C43.6787 22.8682 43.7245 22.982 43.8173 23.0736C43.9101 23.1664 44.0227 23.2122 44.1576 23.2122Z" fill="#313265"/>
<path d="M60.3919 31.9986V28.9692H69.3046C69.4222 28.9692 69.5273 28.9221 69.6202 28.8306C69.713 28.7378 69.7588 28.6239 69.7588 28.4903V26.2181H61.2743C60.6679 26.2181 60.1085 26.0622 59.5949 25.7516C59.0814 25.4397 58.6693 25.0314 58.3574 24.5264C58.0456 24.0215 57.8909 23.4572 57.8909 22.8347V14.9566C57.8909 14.3342 58.0468 13.7699 58.3574 13.2649C58.6693 12.76 59.0814 12.3516 59.5949 12.0398C60.1085 11.7279 60.6679 11.5732 61.2743 11.5732H69.4048C70.0273 11.5732 70.5953 11.7292 71.1089 12.0398C71.6225 12.3516 72.0259 12.7588 72.3204 13.2649C72.615 13.7699 72.7622 14.3342 72.7622 14.9566V28.6165C72.7622 29.239 72.615 29.807 72.3204 30.3206C72.0259 30.8341 71.6212 31.2425 71.1089 31.5457C70.5953 31.8489 70.0273 31.9999 69.4048 31.9999H60.3907L60.3919 31.9986ZM61.377 23.2122H69.3058C69.4234 23.2122 69.5286 23.1664 69.6214 23.0736C69.7142 22.9808 69.76 22.8682 69.76 22.7333V15.0569C69.76 14.922 69.713 14.8094 69.6214 14.7166C69.5286 14.6237 69.4234 14.578 69.3058 14.578H61.377C61.2421 14.578 61.1282 14.625 61.0367 14.7166C60.9451 14.8081 60.8981 14.9232 60.8981 15.0569V22.7333C60.8981 22.8682 60.9438 22.982 61.0367 23.0736C61.1295 23.1664 61.2421 23.2122 61.377 23.2122Z" fill="#313265"/>
<path d="M78.2959 26.2169C77.6735 26.2169 77.1054 26.061 76.5919 25.7504C76.0783 25.4385 75.6699 25.0301 75.3667 24.5252C75.0635 24.0203 74.9125 23.456 74.9125 22.8335V17.3797H86.7804V15.0569C86.7804 14.922 86.7334 14.8094 86.6418 14.7166C86.549 14.6237 86.4352 14.578 86.3015 14.578H74.9138V11.5732H86.403C87.0428 11.5732 87.6145 11.7292 88.1207 12.0398C88.6256 12.3516 89.029 12.7588 89.3322 13.2649C89.6354 13.7699 89.7864 14.3342 89.7864 14.9566V26.2181H78.2972L78.2959 26.2169ZM78.3962 23.2122H86.7792V20.132H77.916V22.7333C77.916 22.8682 77.9618 22.982 78.0546 23.0736C78.1474 23.1664 78.2613 23.2122 78.3949 23.2122H78.3962Z" fill="#313265"/>
<path d="M92.0061 26.2167V14.9552C92.0061 14.3327 92.162 13.7684 92.4739 13.2635C92.7845 12.7586 93.1978 12.3502 93.7114 12.0383C94.225 11.7265 94.7844 11.5718 95.3907 11.5718H103.546V14.5765H95.491C95.3561 14.5765 95.2422 14.6235 95.1507 14.7151C95.0591 14.8067 95.0121 14.9218 95.0121 15.0554V26.2154H92.0073L92.0061 26.2167Z" fill="#313265"/>
<path d="M55.7305 9.20832C55.7305 9.20832 56.3283 10.3134 57.6363 9.20832L65.4389 2.60734L72.7589 9.16624C74.2712 10.2565 74.8367 9.16624 74.8367 9.16624L65.4389 0.655762L55.7318 9.20708L55.7305 9.20832Z" fill="#313265"/>
<path d="M56.5637 10.191C56.4734 10.191 56.3843 10.1824 56.2964 10.1663C55.6393 10.0425 55.3311 9.50422 55.299 9.44234L55.1133 9.09954L65.443 0L75.4447 9.05747L75.2702 9.39284C75.2405 9.44976 74.9658 9.94972 74.3297 10.1007C73.7728 10.2331 73.1466 10.0537 72.4697 9.56485L72.4288 9.53268L65.4269 3.25841L57.951 9.58342C57.4721 9.98809 57.0068 10.191 56.5625 10.191H56.5637ZM56.4796 9.20226C56.4796 9.20226 56.4845 9.20226 56.487 9.20349C56.6999 9.23814 56.9956 9.10821 57.3199 8.83471L65.4479 1.95777L73.0649 8.78397C73.4758 9.07603 73.8285 9.20226 74.0859 9.15028L65.4331 1.31425L56.4796 9.20226Z" fill="#313265"/>
<path d="M65.3889 17.1025H63.8557V18.6358H65.3889V17.1025Z" fill="#313265"/>
<path d="M65.389 19.0332H63.8557V20.5665H65.389V19.0332Z" fill="#313265"/>
<path d="M67.3323 17.1025H65.799V18.6358H67.3323V17.1025Z" fill="#313265"/>
<path d="M67.3323 19.0332H65.799V20.5665H67.3323V19.0332Z" fill="#313265"/>
<path d="M4.03116 26.5945C3.30721 26.5945 2.65132 26.4175 2.06349 26.0648C1.47566 25.7121 1.0054 25.2419 0.652709 24.6541C0.300013 24.0662 0.123047 23.4103 0.123047 22.6864V10.9633C0.123047 10.2406 0.300013 9.58344 0.652709 8.99562C1.0054 8.40779 1.47566 7.93753 2.06349 7.58484C2.65132 7.23214 3.30721 7.05518 4.03116 7.05518H15.7543C16.4597 7.05518 17.1069 7.2309 17.6947 7.58484C18.2825 7.93753 18.7577 8.40779 19.1191 8.99562C19.4805 9.58344 19.6624 10.2393 19.6624 10.9633V22.6864C19.6624 23.4103 19.4817 24.0662 19.1191 24.6541C18.7565 25.2419 18.2825 25.7121 17.6947 26.0648C17.1069 26.4175 16.4597 26.5945 15.7543 26.5945H4.03116ZM4.19451 22.6592H15.5377C15.5921 22.6592 15.633 22.6456 15.6602 22.6183C15.6874 22.5911 15.701 22.5503 15.701 22.4958V11.1526C15.701 11.0982 15.6874 11.0573 15.6602 11.0301C15.633 11.0029 15.5921 10.9893 15.5377 10.9893H4.19451C4.14006 10.9893 4.09922 11.0029 4.072 11.0301C4.04477 11.0573 4.03116 11.0982 4.03116 11.1526V22.4958C4.03116 22.5503 4.04477 22.5911 4.072 22.6183C4.09922 22.6456 4.14006 22.6592 4.19451 22.6592Z" fill="#E90000"/>
<path d="M15.755 26.7185H4.03187C3.28811 26.7185 2.605 26.5341 2.00108 26.1715C1.39841 25.8101 0.909583 25.3213 0.546987 24.7174C0.184391 24.1135 0 23.4291 0 22.6866V10.9635C0 10.221 0.184391 9.53787 0.546987 8.93272C0.909583 8.33005 1.39841 7.83998 2.00108 7.47863C2.605 7.11603 3.28811 6.93164 4.03187 6.93164H15.755C16.4802 6.93164 17.1546 7.11603 17.7585 7.47863C18.36 7.83998 18.8537 8.32881 19.225 8.93149C19.5975 9.53664 19.7856 10.221 19.7856 10.9635V22.6866C19.7856 23.4304 19.5963 24.1135 19.225 24.7186C18.8537 25.3213 18.3612 25.8101 17.7585 26.1715C17.1534 26.5341 16.4789 26.7185 15.755 26.7185ZM4.03063 7.17915C3.33266 7.17915 2.69162 7.35116 2.12731 7.69025C1.56052 8.03057 1.09893 8.49093 0.758605 9.05895C0.419523 9.6245 0.247506 10.2655 0.247506 10.9623V22.6854C0.247506 23.3833 0.419523 24.0231 0.758605 24.5887C1.09893 25.1567 1.55929 25.6171 2.12731 25.9574C2.69286 26.2965 3.3339 26.4685 4.03063 26.4685H15.7537C16.4331 26.4685 17.0643 26.2965 17.6311 25.9574C18.1991 25.6171 18.6644 25.1555 19.0146 24.5875C19.3624 24.0219 19.5393 23.3821 19.5393 22.6854V10.9623C19.5393 10.2655 19.3624 9.62574 19.0146 9.05895C18.6644 8.49093 18.1991 8.02933 17.6311 7.68901C17.0655 7.34992 16.4344 7.17791 15.755 7.17791H4.03187L4.03063 7.17915ZM15.5372 22.7831H4.19398C4.10612 22.7831 4.03558 22.7571 3.98484 22.7064C3.9341 22.6557 3.90811 22.5851 3.90811 22.4973V11.1541C3.90811 11.0662 3.9341 10.9957 3.98484 10.9449C4.03558 10.8942 4.10612 10.8682 4.19398 10.8682H15.5372C15.625 10.8682 15.6956 10.8942 15.7463 10.9449C15.797 10.9957 15.823 11.0662 15.823 11.1541V22.4973C15.823 22.5851 15.797 22.6557 15.7463 22.7064C15.6956 22.7571 15.625 22.7831 15.5372 22.7831ZM4.15933 22.5319C4.15933 22.5319 4.17047 22.5356 4.19275 22.5356H15.5359C15.5594 22.5356 15.5693 22.5319 15.5706 22.5307C15.5706 22.5307 15.5743 22.5208 15.5743 22.496V11.1528C15.5743 11.1293 15.5706 11.1194 15.5693 11.1182C15.5693 11.1182 15.5594 11.1145 15.5359 11.1145H4.19275C4.16923 11.1145 4.15933 11.1182 4.15809 11.1194C4.15809 11.1194 4.15438 11.1293 4.15438 11.1528V22.496C4.15438 22.5195 4.15809 22.5294 4.15933 22.5319Z" fill="#E90000"/>
</svg>
