<svg width="28" height="28" viewBox="0 0 28 28" fill="none" xmlns="http://www.w3.org/2000/svg">
<g clip-path="url(#clip0_0_66)">
<path d="M1.16667 7.00008H26.8333C27.1428 7.00008 27.4395 6.87716 27.6583 6.65837C27.8771 6.43958 28 6.14283 28 5.83341C28 5.524 27.8771 5.22725 27.6583 5.00846C27.4395 4.78966 27.1428 4.66675 26.8333 4.66675H1.16667C0.857247 4.66675 0.560501 4.78966 0.341709 5.00846C0.122916 5.22725 0 5.524 0 5.83341C0 6.14283 0.122916 6.43958 0.341709 6.65837C0.560501 6.87716 0.857247 7.00008 1.16667 7.00008Z" fill="#313265"/>
<path d="M26.834 10.5H10.5007C10.1912 10.5 9.89449 10.6229 9.67569 10.8417C9.4569 11.0605 9.33398 11.3572 9.33398 11.6667C9.33398 11.9761 9.4569 12.2728 9.67569 12.4916C9.89449 12.7104 10.1912 12.8333 10.5007 12.8333H26.834C27.1434 12.8333 27.4402 12.7104 27.6589 12.4916C27.8777 12.2728 28.0007 11.9761 28.0007 11.6667C28.0007 11.3572 27.8777 11.0605 27.6589 10.8417C27.4402 10.6229 27.1434 10.5 26.834 10.5Z" fill="#313265"/>
<path d="M26.8333 22.1667H1.16667C0.857247 22.1667 0.560501 22.2897 0.341709 22.5085C0.122916 22.7272 0 23.024 0 23.3334C0 23.6428 0.122916 23.9396 0.341709 24.1584C0.560501 24.3772 0.857247 24.5001 1.16667 24.5001H26.8333C27.1428 24.5001 27.4395 24.3772 27.6583 24.1584C27.8771 23.9396 28 23.6428 28 23.3334C28 23.024 27.8771 22.7272 27.6583 22.5085C27.4395 22.2897 27.1428 22.1667 26.8333 22.1667Z" fill="#313265"/>
<path d="M26.834 16.3335H10.5007C10.1912 16.3335 9.89449 16.4564 9.67569 16.6752C9.4569 16.894 9.33398 17.1907 9.33398 17.5002C9.33398 17.8096 9.4569 18.1063 9.67569 18.3251C9.89449 18.5439 10.1912 18.6668 10.5007 18.6668H26.834C27.1434 18.6668 27.4402 18.5439 27.6589 18.3251C27.8777 18.1063 28.0007 17.8096 28.0007 17.5002C28.0007 17.1907 27.8777 16.894 27.6589 16.6752C27.4402 16.4564 27.1434 16.3335 26.834 16.3335Z" fill="#313265"/>
<path d="M1.9915 18.9525L5.46117 15.4828C5.69926 15.244 5.83296 14.9205 5.83296 14.5833C5.83296 14.2461 5.69926 13.9226 5.46117 13.6838L1.9915 10.2141C1.82827 10.051 1.6203 9.93986 1.39392 9.89491C1.16753 9.84995 0.932895 9.87315 0.719698 9.96158C0.5065 10.05 0.324322 10.1997 0.196212 10.3917C0.0681025 10.5837 -0.00018123 10.8093 3.61248e-07 11.0401V18.1265C-0.00018123 18.3573 0.0681025 18.583 0.196212 18.7749C0.324322 18.9669 0.5065 19.1166 0.719698 19.205C0.932895 19.2935 1.16753 19.3167 1.39392 19.2717C1.6203 19.2268 1.82827 19.1157 1.9915 18.9525Z" fill="#313265"/>
</g>
<defs>
<clipPath id="clip0_0_66">
<rect width="28" height="28" fill="white"/>
</clipPath>
</defs>
</svg>
