<svg width="20" height="20" viewBox="0 0 20 20" fill="none" xmlns="http://www.w3.org/2000/svg">
<g clip-path="url(#clip0_0_49)">
<path d="M14.6268 6.78571C14.2683 6.78361 13.9129 6.85197 13.5808 6.98712C13.486 7.02618 13.3791 7.0227 13.287 6.97736C13.1951 6.93219 13.1269 6.84953 13.1001 6.75065C12.7836 5.58924 11.7732 4.75079 10.5734 4.65383C9.37343 4.55705 8.24149 5.22251 7.74292 6.31818C7.66846 6.48297 7.48256 6.56615 7.31009 6.51175C7.13518 6.45664 6.95295 6.42856 6.76967 6.42856C5.89774 6.4249 5.15241 7.05531 5.01116 7.91573C4.98256 8.08785 4.83364 8.21428 4.65908 8.21428C3.47552 8.20538 2.50889 9.15753 2.5 10.3411C2.49111 11.5245 3.44343 12.4911 4.62681 12.5H14.6268C16.2048 12.5 17.484 11.2209 17.484 9.64285C17.484 8.06483 16.2048 6.78571 14.6268 6.78571ZM9.98396 11.5764L8.21621 9.80852L8.72105 9.30349L9.62681 10.2093V6.78571H10.3411V10.2093L11.2469 9.30349L11.7519 9.80852L9.98396 11.5764Z" fill="#313265"/>
<path d="M4.26967 1.42857H15.6982V1.07143C15.6982 0.479736 15.2185 0 14.6268 0H5.3411C4.7494 0 4.26967 0.479736 4.26967 1.07143V1.42857ZM9.62681 0.357143H10.3411V1.07143H9.62681V0.357143Z" fill="#313265"/>
<path d="M4.26967 7.52525C4.30367 7.52107 4.33716 7.51427 4.37151 7.51148C4.73109 6.28031 5.96488 5.52173 7.22569 5.75645C7.90039 4.55022 9.21038 3.84152 10.5891 3.93673C11.9678 4.03212 13.1677 4.91417 13.6701 6.20183C13.9814 6.11447 14.3035 6.07052 14.6268 6.07139C14.9902 6.07122 15.3516 6.12667 15.6982 6.23601V2.14282H4.26967V7.52525Z" fill="#313265"/>
<path d="M15.6982 17.857V13.0496C15.3516 13.1589 14.9902 13.2144 14.6268 13.2142H4.62681C4.50736 13.2135 4.38808 13.2051 4.26967 13.1896V17.857H8.91253V18.5713H4.26967V18.9285C4.26967 19.5202 4.7494 19.9999 5.3411 19.9999H14.6268C15.2185 19.9999 15.6982 19.5202 15.6982 18.9285V18.5713H11.0554V17.857H15.6982ZM10.3411 18.5713H9.62681V17.857H10.3411V18.5713Z" fill="#313265"/>
</g>
<defs>
<clipPath id="clip0_0_49">
<rect width="20" height="20" fill="white"/>
</clipPath>
</defs>
</svg>
