<svg width="28" height="28" viewBox="0 0 28 28" fill="none" xmlns="http://www.w3.org/2000/svg">
<g clip-path="url(#clip0_0_59)">
<path d="M28 14C28 18.0973 26.2395 21.7836 23.4342 24.3441C20.9453 26.6149 17.6346 28 14 28C10.3654 28 7.05469 26.6149 4.56577 24.3441C1.76047 21.7836 0 18.0973 0 14C0 6.26834 6.26834 0 14 0C21.7317 0 28 6.26834 28 14Z" fill="#FFAA20"/>
<path d="M28 14C28 18.0973 26.2395 21.7836 23.4342 24.3441C20.9453 26.6149 17.6346 28 14 28V0C21.7317 0 28 6.26834 28 14Z" fill="#FF8900"/>
<path d="M23.4349 24.2883V24.344C20.946 26.6148 17.6352 28 14.0006 28C10.3661 28 7.05533 26.6148 4.56641 24.344V24.2883C4.56641 20.2326 7.13907 16.766 10.7386 15.4362C11.7552 15.0598 12.8543 14.8542 14.0006 14.8542C15.1469 14.8542 16.246 15.0598 17.2633 15.4362C20.8629 16.7666 23.4349 20.2326 23.4349 24.2883Z" fill="#7985EB"/>
<path d="M23.4342 24.2883V24.344C20.9453 26.6148 17.6346 28 14 28V14.8542C15.1463 14.8542 16.2454 15.0598 17.2627 15.4362C20.8622 16.7666 23.4342 20.2326 23.4342 24.2883Z" fill="#4B5BE6"/>
<path d="M19.7857 10.6599C19.7857 13.8504 17.1904 16.4466 13.9993 16.4466C10.8088 16.4466 8.21289 13.8504 8.21289 10.6599C8.21289 7.46948 10.8088 4.87354 13.9993 4.87354C17.1904 4.87354 19.7857 7.46948 19.7857 10.6599Z" fill="#FFDBA9"/>
<path d="M19.7864 10.6597C19.7864 13.8502 17.1911 16.4463 14 16.4463V4.87329C17.1911 4.87329 19.7864 7.46924 19.7864 10.6597Z" fill="#FFC473"/>
</g>
<defs>
<clipPath id="clip0_0_59">
<rect width="28" height="28" fill="white"/>
</clipPath>
</defs>
</svg>
