<svg width="20" height="20" viewBox="0 0 20 20" fill="none" xmlns="http://www.w3.org/2000/svg">
<path d="M10 6.875C8.28109 6.875 6.87496 8.28125 6.87496 10C6.87496 11.7189 8.28109 13.125 10 13.125C11.7189 13.125 13.125 11.7189 13.125 10C13.125 8.28125 11.7189 6.875 10 6.875ZM17.4585 9.16668C17.0833 5.70844 14.2916 2.91668 10.8333 2.54172V1.25H9.16668V2.54168C5.70844 2.91664 2.91668 5.7084 2.54152 9.16664H1.25V10.8333H2.54148C2.91664 14.2916 5.70836 17.0833 9.16664 17.4585V18.75H10.8333V17.4585C14.2915 17.0834 17.0833 14.2916 17.4585 10.8334H18.75V9.16668H17.4585ZM10 15.8333C6.79152 15.8333 4.16664 13.2084 4.16664 10C4.16664 6.79156 6.79152 4.16668 10 4.16668C13.2084 4.16668 15.8333 6.7916 15.8333 10C15.8333 13.2084 13.2084 15.8333 10 15.8333Z" fill="#313265"/>
</svg>
